<svg width="25" height="26" viewBox="0 0 25 26" fill="none" xmlns="http://www.w3.org/2000/svg">
<g clip-path="url(#clip0_848_4620)">
<path d="M9.57202 24.0351C7.00064 24.0351 4.90869 21.9431 4.90869 19.3717V6.62823H3.44385V19.3717C3.44385 22.7508 6.19292 25.4999 9.57202 25.4999C10.4673 25.4999 11.3505 25.3015 12.155 24.9281C11.8188 24.5604 11.5257 24.1526 11.2841 23.7127C10.7459 23.9254 10.169 24.0351 9.57202 24.0351Z" fill="white"/>
<path d="M12.103 16.5539V6.62822H10.6382V19.3717C10.6382 19.9596 10.1599 20.4379 9.57202 20.4379C8.98413 20.4379 8.50586 19.9596 8.50586 19.3717V4.82959C8.50586 3.24995 9.79097 1.96484 11.3706 1.96484C12.9502 1.96484 14.2354 3.24995 14.2354 4.82959V14.9959C14.6971 14.7905 15.188 14.6395 15.7002 14.5509V4.82959C15.7002 2.44224 13.758 0.5 11.3706 0.5C8.98325 0.5 7.04102 2.44224 7.04102 4.82959V19.3717C7.04102 20.7673 8.17642 21.9027 9.57202 21.9027C9.93472 21.9027 10.2799 21.826 10.592 21.688C10.542 21.37 10.516 21.044 10.516 20.7122C10.516 19.1171 11.1164 17.6596 12.103 16.5539Z" fill="white"/>
<path d="M21.5563 20.7122C21.5563 18.0722 19.4085 15.9244 16.7685 15.9244C14.1285 15.9244 11.9807 18.0722 11.9807 20.7122C11.9807 23.3523 14.1285 25.5 16.7685 25.5C19.4085 25.5 21.5563 23.3523 21.5563 20.7122ZM19.3103 21.4406H17.5009V23.2501H16.0361V21.4406H14.2267V19.9758H16.0361V18.1664H17.5009V19.9758H19.3103V21.4406Z" fill="white"/>
</g>
<defs>
<clipPath id="clip0_848_4620">
<rect width="25" height="25" fill="white" transform="translate(0 0.5)"/>
</clipPath>
</defs>
</svg>
