<svg width="14" height="15" viewBox="0 0 14 15" fill="none" xmlns="http://www.w3.org/2000/svg">
<path d="M13.75 5.205C13.7422 5.1361 13.7271 5.06822 13.705 5.0025V4.935C13.6689 4.85788 13.6208 4.787 13.5625 4.725L9.0625 0.225C9.0005 0.166662 8.92962 0.118561 8.8525 0.0824999C8.83011 0.0793201 8.80739 0.0793201 8.785 0.0824999C8.70881 0.0388059 8.62467 0.0107582 8.5375 0H5.5C4.90326 0 4.33097 0.237053 3.90901 0.65901C3.48705 1.08097 3.25 1.65326 3.25 2.25V3H2.5C1.90326 3 1.33097 3.23705 0.90901 3.65901C0.487053 4.08097 0.25 4.65326 0.25 5.25V12.75C0.25 13.3467 0.487053 13.919 0.90901 14.341C1.33097 14.7629 1.90326 15 2.5 15H8.5C9.09674 15 9.66903 14.7629 10.091 14.341C10.5129 13.919 10.75 13.3467 10.75 12.75V12H11.5C12.0967 12 12.669 11.7629 13.091 11.341C13.5129 10.919 13.75 10.3467 13.75 9.75V5.25C13.75 5.25 13.75 5.25 13.75 5.205ZM9.25 2.5575L11.1925 4.5H10C9.80109 4.5 9.61032 4.42098 9.46967 4.28033C9.32902 4.13968 9.25 3.94891 9.25 3.75V2.5575ZM9.25 12.75C9.25 12.9489 9.17098 13.1397 9.03033 13.2803C8.88968 13.421 8.69891 13.5 8.5 13.5H2.5C2.30109 13.5 2.11032 13.421 1.96967 13.2803C1.82902 13.1397 1.75 12.9489 1.75 12.75V5.25C1.75 5.05109 1.82902 4.86032 1.96967 4.71967C2.11032 4.57902 2.30109 4.5 2.5 4.5H3.25V9.75C3.25 10.3467 3.48705 10.919 3.90901 11.341C4.33097 11.7629 4.90326 12 5.5 12H9.25V12.75ZM12.25 9.75C12.25 9.94891 12.171 10.1397 12.0303 10.2803C11.8897 10.421 11.6989 10.5 11.5 10.5H5.5C5.30109 10.5 5.11032 10.421 4.96967 10.2803C4.82902 10.1397 4.75 9.94891 4.75 9.75V2.25C4.75 2.05109 4.82902 1.86032 4.96967 1.71967C5.11032 1.57902 5.30109 1.5 5.5 1.5H7.75V3.75C7.75 4.34674 7.98705 4.91903 8.40901 5.34099C8.83097 5.76295 9.40326 6 10 6H12.25V9.75Z" fill="white"/>
</svg>
