<svg width="18" height="18" viewBox="0 0 18 18" fill="none" xmlns="http://www.w3.org/2000/svg">
<g opacity="0.5">
<path fill-rule="evenodd" clip-rule="evenodd" d="M9 2.0625C9.31068 2.0625 9.5625 2.31434 9.5625 2.625V11.5575C9.5625 11.8682 9.31068 12.12 9 12.12C8.68932 12.12 8.4375 11.8682 8.4375 11.5575V2.625C8.4375 2.31434 8.68932 2.0625 9 2.0625Z" fill="white"/>
<path fill-rule="evenodd" clip-rule="evenodd" d="M5.63931 8.60278C5.85868 8.38282 6.21481 8.38233 6.43477 8.6017L9.00009 11.16L11.5654 8.6017C11.7854 8.38233 12.1415 8.38282 12.3609 8.60278C12.5802 8.82279 12.5797 9.17892 12.3598 9.39829L9.60781 12.1428C9.60777 12.1428 9.6079 12.1427 9.60781 12.1428C9.26883 12.4816 8.73441 12.4639 8.40537 12.1554C8.40114 12.1514 8.397 12.1474 8.3929 12.1433L5.64039 9.39829C5.42043 9.17892 5.41993 8.82279 5.63931 8.60278Z" fill="white"/>
<path fill-rule="evenodd" clip-rule="evenodd" d="M2.25 11.2725C2.56066 11.2725 2.8125 11.5244 2.8125 11.835V13.2525C2.8125 14.1106 3.51187 14.8125 4.38 14.8125H13.62C14.4882 14.8125 15.1875 14.1106 15.1875 13.2525V11.835C15.1875 11.5244 15.4393 11.2725 15.75 11.2725C16.0607 11.2725 16.3125 11.5244 16.3125 11.835V13.2525C16.3125 14.7344 15.1069 15.9375 13.62 15.9375H4.38C2.89313 15.9375 1.6875 14.7344 1.6875 13.2525V11.835C1.6875 11.5244 1.93934 11.2725 2.25 11.2725Z" fill="white"/>
</g>
</svg>
