<svg width="31" height="32" viewBox="0 0 31 32" fill="none" xmlns="http://www.w3.org/2000/svg">
<path d="M15.4178 0.401963V1.68306L10.6381 2.00672L5.56354 1.68306V0.401963C5.56354 0.179959 5.7435 0 5.9655 0H15.0159C15.2379 0 15.4178 0.179959 15.4178 0.401963Z" fill="#7CA1B1"/>
<path d="M15.4182 0.40177V1.68306L13.3579 1.81183V0.40177C13.3579 0.179637 13.1776 0 12.9554 0H15.0158C15.2379 0 15.4182 0.179637 15.4182 0.40177Z" fill="#678D98"/>
<path d="M20.9809 3.63159V29.5419C20.9809 30.6184 20.1085 31.4909 19.0319 31.4909H1.94961C0.873077 31.4909 0 30.6184 0 29.5419V3.63159C0 2.55505 0.873077 1.68262 1.94961 1.68262H2.97818L10.491 2.178L17.8301 1.68262H19.0319C20.1085 1.68262 20.9809 2.55505 20.9809 3.63159Z" fill="#5986CB"/>
<path d="M20.9813 3.63137V29.5417C20.9813 30.6182 20.1088 31.4906 19.0323 31.4906H17.8302C18.9067 31.4906 19.7792 30.6182 19.7792 29.5417V3.63137C19.7792 1.61434 18.0536 1.6824 18.0536 1.6824H19.0323C20.1088 1.6824 20.9813 2.55483 20.9813 3.63137Z" fill="#4278C3"/>
<path d="M19.0321 2.66129V27.242C19.0321 27.7829 18.5936 28.2207 18.0534 28.2207H2.92844C2.38759 28.2207 1.94977 27.7829 1.94977 27.242V2.66129C1.94977 2.12109 2.38759 1.68262 2.92844 1.68262H18.0534C18.5936 1.68262 19.0321 2.12109 19.0321 2.66129Z" fill="#C8EFFE"/>
<path d="M19.032 2.66129V27.242C19.032 27.7829 18.5936 28.2207 18.0534 28.2207H16.3265C16.8674 28.2207 17.3052 27.7829 17.3052 27.242V2.66129C17.3052 2.12109 16.8674 1.68262 16.3265 1.68262H18.0534C18.5936 1.68262 19.032 2.12109 19.032 2.66129Z" fill="#99E6FC"/>
<path d="M16.425 8.44477H4.85142C4.6392 8.44477 4.46716 8.27273 4.46716 8.06051V6.89744C4.46716 6.68522 4.6392 6.51318 4.85142 6.51318H16.425C16.6372 6.51318 16.8092 6.68522 16.8092 6.89744V8.06051C16.8092 8.27273 16.6372 8.44477 16.425 8.44477Z" fill="#7CA1B1"/>
<path d="M13.6334 1.68262V2.58724C13.6334 3.19956 13.1357 3.69791 12.5234 3.69791H8.45807C7.84576 3.69791 7.34806 3.19956 7.34806 2.58724V1.68262H6.38226V2.58724C6.38226 3.73203 7.31329 4.6637 8.45807 4.6637H12.5234C13.6682 4.6637 14.5992 3.73203 14.5992 2.58724V1.68262H13.6334Z" fill="#EAF6FF"/>
<path d="M7.64288 12.1142H4.95006C4.68337 12.1142 4.46716 11.898 4.46716 11.6313C4.46716 11.3646 4.68337 11.1484 4.95006 11.1484H7.64288C7.90957 11.1484 8.12578 11.3646 8.12578 11.6313C8.12578 11.898 7.90957 12.1142 7.64288 12.1142Z" fill="#7CA1B1"/>
<path d="M13.5438 15.3008H4.95006C4.68337 15.3008 4.46716 15.0845 4.46716 14.8179C4.46716 14.5512 4.68337 14.335 4.95006 14.335H13.5437C13.8104 14.335 14.0266 14.5512 14.0266 14.8179C14.0266 15.0845 13.8104 15.3008 13.5438 15.3008Z" fill="#7CA1B1"/>
<path d="M12.6899 18.4873H4.95006C4.68337 18.4873 4.46716 18.2711 4.46716 18.0044C4.46716 17.7377 4.68337 17.5215 4.95006 17.5215H12.6899C12.9565 17.5215 13.1728 17.7377 13.1728 18.0044C13.1728 18.2711 12.9566 18.4873 12.6899 18.4873Z" fill="#7CA1B1"/>
<path d="M11.8361 21.6738H4.95006C4.68337 21.6738 4.46716 21.4576 4.46716 21.1909C4.46716 20.9242 4.68337 20.708 4.95006 20.708H11.8361C12.1028 20.708 12.319 20.9242 12.319 21.1909C12.319 21.4576 12.1028 21.6738 11.8361 21.6738Z" fill="#7CA1B1"/>
<path d="M7.64288 24.8608H4.95006C4.68337 24.8608 4.46716 24.6446 4.46716 24.3779C4.46716 24.1112 4.68337 23.895 4.95006 23.895H7.64288C7.90957 23.895 8.12578 24.1112 8.12578 24.3779C8.12578 24.6446 7.90957 24.8608 7.64288 24.8608Z" fill="#7CA1B1"/>
<path d="M30.3385 12.3392L17.6583 8.94157C17.2992 8.84531 16.93 9.0585 16.8338 9.41758L11.9203 27.7552C11.824 28.1143 12.0372 28.4834 12.3963 28.5797L25.0765 31.9773C25.4356 32.0736 25.8048 31.8604 25.901 31.5013L30.8145 13.1638C30.9108 12.8046 30.6977 12.4355 30.3385 12.3392Z" fill="#99E6FC"/>
<path d="M29.226 10.412L24.3125 28.7494C24.2163 29.1082 23.8471 29.3219 23.4883 29.2258L10.8079 25.828C10.449 25.7319 10.2355 25.3621 10.3317 25.0032L15.2452 6.66581C15.3415 6.30634 15.7111 6.09341 16.07 6.18961L28.7504 9.58733C29.1092 9.68346 29.3223 10.0525 29.226 10.412Z" fill="#EAF6FF"/>
<path d="M29.2257 10.4123L24.3124 28.7502C24.2165 29.1088 23.8469 29.3226 23.4883 29.2266L21.4562 28.6819C21.8149 28.7778 22.1851 28.5647 22.281 28.2055L27.1943 9.86827C27.2903 9.51092 27.0797 9.14328 26.7243 9.04541L28.7499 9.58819C29.1092 9.68412 29.3223 10.0531 29.2257 10.4123Z" fill="#C8EFFE"/>
<path d="M18.9492 25.5498C21.5704 25.5498 23.6953 23.4249 23.6953 20.8037C23.6953 18.1825 21.5704 16.0576 18.9492 16.0576C16.328 16.0576 14.2031 18.1825 14.2031 20.8037C14.2031 23.4249 16.328 25.5498 18.9492 25.5498Z" fill="#46CC8D"/>
<path d="M25.0343 15.0237L16.5701 12.7557C16.3756 12.7036 16.2601 12.5036 16.3123 12.3091L17.1091 9.33534C17.1612 9.14076 17.3612 9.02532 17.5558 9.07747L26.02 11.3455C26.2145 11.3976 26.33 11.5976 26.2778 11.7921L25.4811 14.7659C25.4289 14.9604 25.2289 15.0758 25.0343 15.0237Z" fill="#80B4FB"/>
<path d="M18.6881 22.2638C18.5212 22.2638 18.3589 22.1772 18.2694 22.0223L16.7085 19.3187C16.5752 19.0877 16.6543 18.7924 16.8853 18.659C17.1162 18.5256 17.4115 18.6048 17.5449 18.8358L18.8644 21.1212L23.1289 18.659C23.3599 18.5256 23.6552 18.6048 23.7885 18.8358C23.9219 19.0667 23.8428 19.3621 23.6118 19.4954L18.9291 22.199C18.853 22.2429 18.77 22.2638 18.6881 22.2638Z" fill="white"/>
</svg>
