<svg width="101" height="89" viewBox="0 0 101 89" fill="none" xmlns="http://www.w3.org/2000/svg">
<path d="M51.075 20.6654L54.8121 18.7868L55.1813 20.0694L47.3416 25.7394L47.2977 25.772L45.209 29.3534L55.6966 21.7668L55.3457 20.5241L79.4805 18.6147L79.6176 18.6038L81.2751 15.7126L54.633 18.1709L54.6623 18.2741L54.6403 18.218C54.5837 18.0731 54.3827 17.6691 54.1012 17.1166L53.7193 16.3068L47.517 20.8121L51.0732 20.6672L51.075 20.6654Z" fill="white"/>
<path d="M46.9917 20.7244L51.6094 12.5529L50.1749 10.6038L44.4553 20.7244H46.9917Z" fill="white"/>
<path d="M45.6717 6.30294L43.8297 5.01318L39.6597 20.7239H41.8434L45.6717 6.30294Z" fill="white"/>
<path d="M37.7112 2.09749L35.7176 1.67542L34.771 20.7265H36.7866L37.7112 2.09749Z" fill="white"/>
<path d="M29.8716 20.7261H31.7922L29.4824 0.310973L27.5491 0.214966L29.8442 20.496L29.8716 20.7261Z" fill="white"/>
<path d="M26.799 20.7263L21.8706 0.227905H20.0085L24.9387 20.7263H26.799Z" fill="white"/>
<path d="M21.8279 20.7263L14.8036 0.227905H12.9963L20.0225 20.7263H21.8279Z" fill="white"/>
<path d="M16.842 20.7263L8.09632 0.227905H6.34937L15.0951 20.7263H16.842Z" fill="white"/>
<path d="M1.67934 0.22522H0L10.1108 20.5787L10.1839 20.7236H11.865L1.67934 0.22522Z" fill="white"/>
<path d="M56.4912 24.9044L43.1053 33.1957L42.9755 33.2755L40.8484 36.6847L56.683 26.9641L56.9188 28.897L75.0889 26.5167L76.708 23.6907L56.6648 26.3482C56.6483 26.2051 56.6337 26.062 56.6154 25.9134L56.4912 24.9026V24.9044Z" fill="white"/>
<path d="M57.0907 34.935L57.067 36.7285L70.7599 34.2068L72.2584 31.446L57.1748 34.2702C57.1748 34.0728 57.1748 33.8753 57.1748 33.6797L57.1675 32.6996L38.5697 40.7609L36.8684 43.6901L57.0925 34.9387L57.0907 34.935Z" fill="white"/>
<path d="M55.3896 51.1566C55.4407 50.9085 55.4937 50.6585 55.5431 50.4085L55.7404 49.414L29.875 55.6836L28.2249 58.5132L55.1045 52.0117L54.7755 53.6747L60.5776 51.8106L62.0907 49.1785L55.3603 51.2871L55.3877 51.1585L55.3896 51.1566Z" fill="white"/>
<path d="M53.6488 58.2649L25.6581 63.1125L25.5375 63.1343L23.8745 65.9838L52.3769 61.0565L52.6017 61.022C52.5669 61.1452 52.5322 61.2702 52.4975 61.3916L52.079 62.8209L54.9846 61.5709L56.6677 58.6381L53.011 60.2739C53.1206 59.9369 53.2303 59.6 53.3381 59.2612L53.6506 58.2649H53.6488Z" fill="white"/>
<path d="M50.2365 67.9053L21.1968 70.5827L19.501 73.4884L48.8367 70.7838L48.9883 70.7693L49.1437 70.4233C49.3721 69.9179 49.5932 69.4125 49.8107 68.9016L50.2365 67.9053Z" fill="white"/>
<path d="M16.8534 78.0342L15.1118 81.025L43.9449 79.7968L44.2209 79.7859L45.9387 76.7897L17.2097 78.0161L16.8534 78.0342Z" fill="white"/>
<path d="M10.7048 88.572H39.1725L40.9469 85.4797H12.5049L10.7048 88.572Z" fill="white"/>
<path d="M54.0146 67.8475L49.3987 76.019L49.6289 76.3505C49.8135 76.6168 50.0163 76.8957 50.232 77.1783L50.8332 77.9681L56.5528 67.8457H54.0146V67.8475Z" fill="white"/>
<path d="M55.3329 82.2667L55.6856 82.5275C55.8994 82.6869 56.1369 82.8536 56.4092 83.0402L57.173 83.5583L61.3449 67.8457H59.1594L55.3311 82.2667H55.3329Z" fill="white"/>
<path d="M63.3002 86.2836L63.291 86.4774L63.7515 86.6368C63.9251 86.6966 64.0969 86.7527 64.2723 86.8089L64.5245 86.8868L65.2847 86.8995L66.2312 67.8484H64.2157L63.3002 86.2854V86.2836Z" fill="white"/>
<path d="M71.1413 67.8457H69.2207L71.5049 88.0452L71.5287 88.2608L72.0714 88.297C72.3144 88.3133 72.5264 88.3242 72.7073 88.3296L73.462 88.355L71.165 68.0758L71.1394 67.8457H71.1413Z" fill="white"/>
<path d="M76.0623 67.8457H74.2002L79.0829 88.1467L79.1304 88.3459H80.9906L76.1098 68.045L76.0623 67.8457Z" fill="white"/>
<path d="M79.1926 67.8457L86.2188 88.3459H88.0242L80.9999 67.8457H79.1926Z" fill="white"/>
<path d="M84.1619 67.8457L92.9076 88.3459H94.6545L85.9088 67.8457H84.1619Z" fill="white"/>
<path d="M90.8223 67.8457H89.1411L99.325 88.3459H101.004L90.8223 67.8457Z" fill="white"/>
<path d="M56.7805 41.8645C56.8097 41.6 56.8481 41.2431 56.8572 41.1453L56.9559 40.1291L34.4402 48.1523L34.2154 48.232L32.5415 51.1232L56.5868 42.5819L56.3931 44.2775L66.1077 42.1743L67.6847 39.4189L56.8755 41.8627H56.7805V41.8645Z" fill="white"/>
<path d="M85.9646 7.54822L56.7021 8.79273L54.9971 11.7854L84.2268 10.5427L85.9646 7.54822Z" fill="white"/>
<path d="M90.2993 0H61.8316L60.0334 3.09408H88.4993L90.2993 0Z" fill="white"/>
</svg>
