<svg width="18" height="18" viewBox="0 0 18 18" fill="none" xmlns="http://www.w3.org/2000/svg">
<path d="M1.78809 11.4751C1.78809 12.5166 2.34839 13.4872 3.25037 14.008L7.53723 16.4832C7.98849 16.7436 8.49414 16.8738 8.99979 16.8738C9.50571 16.8738 10.0114 16.7436 10.4623 16.4832L14.7492 14.008C15.6515 13.4872 16.2118 12.5166 16.2118 11.4751V6.52466C16.2118 5.48315 15.6515 4.51251 14.7492 3.99176L10.4623 1.51654C9.55981 0.995789 8.43921 0.995789 7.53723 1.51654L3.25037 3.99176C2.34839 4.51251 1.78809 5.48315 1.78809 6.52466V11.4751ZM2.91309 6.52466C2.91309 5.88361 3.25778 5.2865 3.81287 4.96625L8.09973 2.49103C8.37741 2.33063 8.6886 2.25043 8.99979 2.25043C9.31125 2.25043 9.62244 2.33063 9.89984 2.49103L14.1867 4.96625C14.7418 5.2865 15.0868 5.88361 15.0868 6.52466V7.80676C12.5005 8.5 6.75406 14.7317 6.62169 14.6553L3.81287 13.0335C3.25778 12.7133 2.91309 12.1161 2.91309 11.4751V6.52466ZM8.09973 15.5087L6.62169 14.6553C9.00049 12.5 11.5005 9.5 15.0868 7.80676V11.4751C15.0868 12.1161 14.7418 12.7133 14.1867 13.0335L9.89984 15.5087C9.34558 15.8301 8.65564 15.8301 8.09973 15.5087Z" fill="url(#paint0_linear_979_3264)"/>
<path d="M9 7.53435C9.55858 7.53435 10.013 7.87372 10.013 8.29084H11C11 7.51595 10.3584 6.86325 9.4935 6.68017V6H8.5065V6.68017C7.64159 6.86325 7 7.51595 7 8.29084C7 9.20718 7.89719 9.95269 9 9.95269C9.55858 9.95269 10.013 10.2921 10.013 10.7092C10.013 11.1263 9.55858 11.4657 9 11.4657C8.44142 11.4657 7.987 11.1263 7.987 10.7092H7C7 11.484 7.64155 12.1368 8.5065 12.3198V13H9.4935V12.3198C10.3584 12.1368 11 11.484 11 10.7092C11 9.79285 10.1028 9.04734 9 9.04734C8.44142 9.04734 7.987 8.70796 7.987 8.29084C7.987 7.87372 8.44142 7.53435 9 7.53435Z" fill="url(#paint1_linear_979_3264)"/>
<defs>
<linearGradient id="paint0_linear_979_3264" x1="8.99992" y1="1.12598" x2="8.99992" y2="16.8738" gradientUnits="userSpaceOnUse">
<stop stop-color="#2AF698"/>
<stop offset="1" stop-color="#5BBFCD"/>
</linearGradient>
<linearGradient id="paint1_linear_979_3264" x1="9" y1="6" x2="9" y2="13" gradientUnits="userSpaceOnUse">
<stop stop-color="#2AF698"/>
<stop offset="1" stop-color="#5BBFCD"/>
</linearGradient>
</defs>
</svg>
