<svg width="18" height="18" viewBox="0 0 18 18" fill="none" xmlns="http://www.w3.org/2000/svg">
<g opacity="0.5">
<path d="M1.7876 11.4752C1.7876 12.5167 2.3479 13.4874 3.24988 14.0081L7.53674 16.4833C7.98801 16.7437 8.49365 16.8739 8.9993 16.8739C9.50522 16.8739 10.0109 16.7437 10.4619 16.4833L14.7487 14.0081C15.651 13.4874 16.2113 12.5167 16.2113 11.4752V6.52478C16.2113 5.48328 15.651 4.51263 14.7487 3.99188L10.4619 1.51666C9.55933 0.995911 8.43872 0.995911 7.53674 1.51666L3.24988 3.99188C2.3479 4.51263 1.7876 5.48328 1.7876 6.52478V11.4752ZM2.9126 6.52478C2.9126 5.88373 3.25729 5.28662 3.81238 4.96637L8.09924 2.49115C8.37692 2.33075 8.68811 2.25055 8.9993 2.25055C9.31076 2.25055 9.62195 2.33075 9.89935 2.49115L14.1862 4.96637C14.7413 5.28662 15.0863 5.88373 15.0863 6.52478V6.6709C10.8746 7.30893 7.26346 10.1462 5.63625 14.0867L3.81238 13.0336C3.25729 12.7134 2.9126 12.1163 2.9126 11.4752V6.52478ZM8.09924 15.5089L6.6212 14.6554C8.04905 11.0582 11.286 8.44303 15.0863 7.80688V11.4752C15.0863 12.1163 14.7413 12.7134 14.1862 13.0336L9.89935 15.5089C9.34509 15.8302 8.65515 15.8302 8.09924 15.5089Z" fill="white"/>
<path d="M6.58008 8.81158C7.66553 8.81158 8.54883 7.92828 8.54883 6.84283C8.54883 5.75739 7.66553 4.87408 6.58008 4.87408C5.49463 4.87408 4.61133 5.75739 4.61133 6.84283C4.61133 7.92828 5.49463 8.81158 6.58008 8.81158ZM6.58008 5.99908C7.04535 5.99908 7.42383 6.37756 7.42383 6.84283C7.42383 7.30811 7.04535 7.68658 6.58008 7.68658C6.11481 7.68658 5.73633 7.30811 5.73633 6.84283C5.73633 6.37756 6.11481 5.99908 6.58008 5.99908Z" fill="white"/>
</g>
</svg>
