<svg width="18" height="19" viewBox="0 0 18 19" fill="none" xmlns="http://www.w3.org/2000/svg">
<path d="M13.5 11.0001C13.0569 11.003 12.6199 11.1041 12.2205 11.296C11.8211 11.4879 11.4692 11.7659 11.19 12.1101L7.36499 10.3476C7.54483 9.7969 7.54483 9.20327 7.36499 8.65259L11.19 6.89009C11.6412 7.43456 12.2702 7.80214 12.9661 7.92797C13.662 8.05379 14.3799 7.92976 14.9932 7.57776C15.6065 7.22577 16.0758 6.66844 16.3182 6.00414C16.5605 5.33984 16.5605 4.61127 16.318 3.94702C16.0755 3.28276 15.6061 2.72552 14.9927 2.37364C14.3794 2.02176 13.6614 1.89786 12.9656 2.0238C12.2697 2.14975 11.6408 2.51745 11.1896 3.06201C10.7385 3.60656 10.4943 4.29297 10.5 5.00009C10.5022 5.17876 10.5198 5.35691 10.5525 5.53259L6.59249 7.35509C6.1703 6.94227 5.63567 6.66322 5.05559 6.55291C4.47552 6.44259 3.87578 6.50591 3.33153 6.73493C2.78728 6.96396 2.32271 7.3485 1.99604 7.84038C1.66937 8.33226 1.49512 8.90961 1.49512 9.50009C1.49512 10.0906 1.66937 10.6679 1.99604 11.1598C2.32271 11.6517 2.78728 12.0362 3.33153 12.2652C3.87578 12.4943 4.47552 12.5576 5.05559 12.4473C5.63567 12.3369 6.1703 12.0579 6.59249 11.6451L10.5525 13.4676C10.5198 13.6433 10.5022 13.8214 10.5 14.0001C10.5 14.5934 10.6759 15.1734 11.0056 15.6668C11.3352 16.1601 11.8038 16.5447 12.3519 16.7717C12.9001 16.9988 13.5033 17.0582 14.0853 16.9424C14.6672 16.8267 15.2018 16.541 15.6213 16.1214C16.0409 15.7018 16.3266 15.1673 16.4423 14.5854C16.5581 14.0034 16.4987 13.4002 16.2716 12.852C16.0446 12.3039 15.66 11.8353 15.1667 11.5057C14.6734 11.176 14.0933 11.0001 13.5 11.0001ZM13.5 3.50009C13.7967 3.50009 14.0867 3.58806 14.3333 3.75288C14.58 3.9177 14.7723 4.15197 14.8858 4.42606C14.9993 4.70015 15.029 5.00175 14.9712 5.29272C14.9133 5.58369 14.7704 5.85097 14.5607 6.06075C14.3509 6.27052 14.0836 6.41339 13.7926 6.47126C13.5017 6.52914 13.2001 6.49944 12.926 6.38591C12.6519 6.27237 12.4176 6.08011 12.2528 5.83344C12.088 5.58677 12 5.29676 12 5.00009C12 4.60226 12.158 4.22073 12.4393 3.93943C12.7206 3.65812 13.1022 3.50009 13.5 3.50009ZM4.49999 11.0001C4.20332 11.0001 3.91331 10.9121 3.66664 10.7473C3.41996 10.5825 3.2277 10.3482 3.11417 10.0741C3.00064 9.80002 2.97093 9.49842 3.02881 9.20745C3.08669 8.91648 3.22955 8.6492 3.43933 8.43943C3.64911 8.22965 3.91638 8.08679 4.20736 8.02891C4.49833 7.97103 4.79993 8.00073 5.07402 8.11427C5.3481 8.2278 5.58237 8.42006 5.74719 8.66673C5.91202 8.9134 5.99999 9.20341 5.99999 9.50009C5.99999 9.89791 5.84196 10.2794 5.56065 10.5607C5.27935 10.8421 4.89782 11.0001 4.49999 11.0001ZM13.5 15.5001C13.2033 15.5001 12.9133 15.4121 12.6666 15.2473C12.42 15.0825 12.2277 14.8482 12.1142 14.5741C12.0006 14.3 11.9709 13.9984 12.0288 13.7075C12.0867 13.4165 12.2296 13.1492 12.4393 12.9394C12.6491 12.7296 12.9164 12.5868 13.2074 12.5289C13.4983 12.471 13.7999 12.5007 14.074 12.6143C14.3481 12.7278 14.5824 12.9201 14.7472 13.1667C14.912 13.4134 15 13.7034 15 14.0001C15 14.3979 14.842 14.7794 14.5607 15.0607C14.2793 15.3421 13.8978 15.5001 13.5 15.5001Z" fill="#EFF2F4"/>
</svg>
