<svg width="30" height="37" viewBox="0 0 30 37" fill="none" xmlns="http://www.w3.org/2000/svg">
<mask id="path-1-inside-1_657_1018" fill="white">
<path fill-rule="evenodd" clip-rule="evenodd" d="M28.0583 11.7951C27.151 11.0912 26.2131 10.4421 25.2707 9.78762C24.0356 8.94632 25.5646 7.56168 25.8224 6.37381C25.8839 7.40513 25.6782 7.69633 25.471 8.5497C25.9819 8.18797 26.587 8.07355 26.9961 8.05273C27.4854 5.72195 24.0832 4.73938 21.8999 4.91947C21.9628 5.02691 22.5401 5.51417 22.6609 5.62007C23.6352 5.52908 24.6492 6.37487 24.7936 7.09619C24.2587 6.81694 24.2331 6.55425 23.3042 6.47734C23.513 6.88284 23.9299 7.30893 24.0629 7.75301C23.6529 7.51234 23.3299 7.05205 22.8858 6.86592C22.7881 7.43885 22.5623 7.65788 22.3604 8.02729C22.3584 8.02409 22.2951 6.91953 22.1639 6.55485C21.1943 6.60774 20.6424 7.08506 20.36 7.72923C20.2065 6.6895 21.0998 5.81425 21.5877 5.65486C20.8107 4.31932 18.401 4.6575 17.579 5.7074C17.9651 4.86255 18.6969 4.29518 19.2867 4.18396C17.3694 3.63717 15.3774 4.5174 14.757 5.91175C15.462 3.73491 17.3188 3.28918 19.0908 3.83395C16.4053 2.05717 13.3743 3.50027 11.7109 5.05791C13.2001 3.14198 15.6815 2.37665 17.126 2.73826C15.4038 1.35858 13.6623 0.994847 11.0403 1.62339C11.3961 2.41842 12.5264 2.67223 13.3039 2.83907C11.2501 4.5639 7.85655 -0.788082 4.4373 0.100306C1.18726 0.94444 1.66967 5.45264 4.51469 7.68911C1.63252 3.01466 3.23997 -0.51333 9.02904 4.13047C9.54789 4.54674 9.772 4.6343 10.5165 4.85948C9.65746 5.07625 9.27574 4.93816 8.53562 4.69406C8.66897 5.07021 8.89201 5.15257 9.003 5.3936C8.33979 5.32438 7.57482 4.90846 7.16056 4.622C7.43649 5.17517 7.95381 5.82395 8.48379 6.08604C8.0067 6.13633 7.65859 5.92417 7.28812 5.84264C7.85087 6.85669 8.70589 7.19783 9.80892 7.19948C7.85205 7.75419 4.98811 9.89932 3.9801 12.0656L5.73084 11.5322C4.7808 12.4236 3.5023 14.96 3.94401 18.087C4.24976 17.2502 4.95048 16.2878 5.13732 16.1035C4.46854 19.2503 5.25304 22.7967 7.73751 24.9926C7.15441 23.5647 6.89516 21.8368 6.75695 20.1547C8.26986 23.3951 10.7182 26.6004 14.3733 27.4947C12.7152 26.1598 11.1278 22.8254 10.7864 20.0115C10.7042 20.7557 10.8581 21.352 10.8998 22.0478C9.46282 20.7655 9.02584 18.3763 8.92621 17.2387C8.69855 18.3278 8.91852 20.3707 9.35183 21.5705C8.39079 20.69 7.96352 18.2055 7.89063 16.9376C7.73846 17.182 7.59339 17.4003 7.43342 17.6726C6.95337 16.1996 7.15417 13.0716 7.81999 11.8797C7.49862 12.1356 7.12814 12.4596 6.92734 12.8156C6.14142 11.5233 9.55961 7.92896 11.3294 7.65622C8.98786 9.76218 8.27625 14.7766 10.7093 17.5416L10.6522 16.176C10.8408 16.6884 11.8448 17.8055 12.6756 17.9552C11.3113 16.9041 9.12997 12.1725 12.0771 9.4324C10.8846 13.4042 13.6001 17.5211 17.269 13.247C17.0602 14.862 16.1597 16.4561 14.4731 16.8287C15.348 17.3646 17.3136 17.1854 18.0458 16.2033C17.5642 16.3059 17.0445 16.2726 16.5454 16.2768C17.2157 15.2967 19.0591 13.5805 20.2279 13.4259C19.875 13.6235 19.5948 13.9565 19.4867 14.1154C20.7062 14.1877 21.6698 14.7401 22.1805 15.4041C21.7549 15.2998 20.0504 14.8553 18.8311 15.5878C20.6435 15.4286 23.0436 16.4355 23.5273 17.2336C22.5566 16.945 20.9481 16.8223 19.9908 17.1608C21.3404 18.652 24.8868 19.3045 26.2024 17.3273C26.6709 16.6232 26.265 15.8091 25.3815 15.4068C24.5125 15.0111 23.187 15.0443 23.2645 13.4919C23.7287 14.0803 24.1593 13.8381 24.7081 13.6612C25.4545 13.4206 25.89 13.6106 26.3302 13.7896C27.1205 14.111 28.9219 13.9062 29.0819 13.1569C29.2054 12.579 28.3479 12.0199 28.0579 11.7948L28.0583 11.7951ZM18.9069 12.7855C19.3358 12.0653 19.5816 11.4455 19.2964 10.6457C18.3285 10.587 17.5932 11.2054 16.6071 10.086C15.9599 9.35171 15.4097 8.84326 14.3357 8.92893C13.2809 10.8572 15.4681 12.2819 17.7449 11.7586C16.9984 13.1103 14.8981 13.4678 13.849 13.4681L13.9043 12.8015C13.9043 12.8015 12.037 11.3106 13.6479 8.86716C11.7495 7.17996 13.0288 5.20191 13.8864 4.8887C13.3747 6.94378 14.2065 8.04374 16.3844 8.13212C17.0974 8.16111 17.8287 8.14396 18.436 8.44971C17.8372 7.34857 16.9419 6.76535 15.9759 6.46918C17.4352 6.40055 18.8983 7.41081 19.7112 8.55893C19.9271 8.81912 20.1372 8.8945 20.6021 8.85072C20.8207 8.83013 22.4458 9.78856 23.411 9.92677C22.6219 10.0289 21.847 10.0129 21.0607 9.95292C22.0777 10.287 23.2717 11.7034 23.4485 13.0029C22.1259 11.3539 20.2507 11.7117 18.9069 12.7854V12.7855Z"/>
</mask>
<path d="M28.0583 11.7951L27.8183 12.1151L28.3035 11.4791L28.0583 11.7951ZM25.2707 9.78762L25.4989 9.45907L25.4959 9.45703L25.2707 9.78762ZM25.8224 6.37381L26.2216 6.34999L25.4315 6.289L25.8224 6.37381ZM25.471 8.5497L25.0823 8.45532L24.8303 9.49359L25.7022 8.87613L25.471 8.5497ZM26.9961 8.05273L27.0165 8.45221L27.3243 8.43654L27.3876 8.1349L26.9961 8.05273ZM21.8999 4.91947L21.867 4.52082L21.2333 4.57309L21.5547 5.12168L21.8999 4.91947ZM22.6609 5.62007L22.3973 5.92087L22.5267 6.03435L22.6981 6.01834L22.6609 5.62007ZM24.7936 7.09619L24.6085 7.45078L25.3501 7.8379L25.1858 7.01763L24.7936 7.09619ZM23.3042 6.47734L23.3372 6.07871L22.6183 6.01919L22.9485 6.66049L23.3042 6.47734ZM24.0629 7.75301L23.8604 8.09797L24.738 8.61316L24.446 7.63825L24.0629 7.75301ZM22.8858 6.86592L23.0403 6.497L22.576 6.30243L22.4914 6.79874L22.8858 6.86592ZM22.3604 8.02729L22.0219 8.24041L22.3848 8.81678L22.7114 8.2191L22.3604 8.02729ZM22.1639 6.55485L22.5402 6.41941L22.4394 6.13922L22.1421 6.15544L22.1639 6.55485ZM20.36 7.72923L19.9643 7.78764L20.1675 9.16437L20.7263 7.88985L20.36 7.72923ZM21.5877 5.65486L21.7119 6.03509L22.1823 5.88144L21.9335 5.4537L21.5877 5.65486ZM17.579 5.7074L17.2152 5.54114L17.8939 5.95398L17.579 5.7074ZM19.2867 4.18396L19.3608 4.57703L19.3964 3.7993L19.2867 4.18396ZM14.757 5.91175L14.3765 5.78851L15.1225 6.07435L14.757 5.91175ZM19.0908 3.83395L18.9733 4.21629L19.3115 3.50036L19.0908 3.83395ZM11.7109 5.05791L11.3951 4.81243L11.9843 5.34988L11.7109 5.05791ZM17.126 2.73826L17.0289 3.12628L17.3761 2.42608L17.126 2.73826ZM11.0403 1.62339L10.9471 1.23441L10.4783 1.34679L10.6752 1.78679L11.0403 1.62339ZM13.3039 2.83907L13.5611 3.14537L14.1873 2.61952L13.3878 2.44797L13.3039 2.83907ZM4.4373 0.100306L4.53786 0.487459L4.53789 0.48745L4.4373 0.100306ZM4.51469 7.68911L4.26748 8.00358L4.85517 7.47918L4.51469 7.68911ZM9.02904 4.13047L9.27935 3.81847L9.27932 3.81846L9.02904 4.13047ZM10.5165 4.85948L10.6144 5.24732L12.0133 4.8943L10.6323 4.47661L10.5165 4.85948ZM8.53562 4.69406L8.66091 4.31419L7.88595 4.05859L8.15861 4.82771L8.53562 4.69406ZM9.003 5.3936L8.96148 5.79144L9.66015 5.86436L9.36633 5.22629L9.003 5.3936ZM7.16056 4.622L7.38807 4.293L6.80262 4.80055L7.16056 4.622ZM8.48379 6.08604L8.52572 6.48384L9.89803 6.33918L8.66111 5.72749L8.48379 6.08604ZM7.28812 5.84264L7.37408 5.45199L6.5081 5.26143L6.93836 6.03674L7.28812 5.84264ZM9.80892 7.19948L9.91801 7.58432L9.80952 6.79948L9.80892 7.19948ZM3.9801 12.0656L3.61744 11.8969L3.23932 12.7095L4.09667 12.4483L3.9801 12.0656ZM5.73084 11.5322L6.00452 11.8239L5.61426 11.1496L5.73084 11.5322ZM3.94401 18.087L3.54794 18.1429L4.31971 18.2242L3.94401 18.087ZM5.13732 16.1035L5.52858 16.1866L5.80586 14.8819L4.85637 15.8188L5.13732 16.1035ZM7.73751 24.9926L7.47262 25.2923L8.10782 24.8413L7.73751 24.9926ZM6.75695 20.1547L7.11939 19.9855L6.3583 20.1875L6.75695 20.1547ZM14.3733 27.4947L14.2783 27.8832L14.6241 27.1831L14.3733 27.4947ZM10.7864 20.0115L11.1835 19.9634L10.3888 19.9676L10.7864 20.0115ZM10.8998 22.0478L10.6334 22.3462L11.357 22.9919L11.299 22.0239L10.8998 22.0478ZM8.92621 17.2387L9.32468 17.2038L8.53468 17.1568L8.92621 17.2387ZM9.35183 21.5705L9.08162 21.8654L9.72804 21.4346L9.35183 21.5705ZM7.89063 16.9376L8.28997 16.9146L8.21758 15.6554L7.55104 16.7262L7.89063 16.9376ZM7.43342 17.6726L7.05311 17.7965L7.32832 18.641L7.77829 17.8752L7.43342 17.6726ZM7.81999 11.8797L8.16919 12.0748L7.57087 11.5668L7.81999 11.8797ZM6.92734 12.8156L6.58559 13.0234L6.9403 13.6067L7.27572 13.0121L6.92734 12.8156ZM11.3294 7.65622L11.5969 7.95363L12.5943 7.05657L11.2685 7.26089L11.3294 7.65622ZM10.7093 17.5416L10.409 17.8058L11.1561 18.6549L11.1089 17.5249L10.7093 17.5416ZM10.6522 16.176L11.0276 16.0378L10.2526 16.1927L10.6522 16.176ZM12.6756 17.9552L12.6047 18.3488L12.9197 17.6383L12.6756 17.9552ZM12.0771 9.4324L12.4602 9.54743L12.8839 8.13608L11.8047 9.13946L12.0771 9.4324ZM17.269 13.247L17.6657 13.2983L17.8372 11.9709L16.9655 12.9864L17.269 13.247ZM14.4731 16.8287L14.3868 16.4381L13.4187 16.652L14.2641 17.1698L14.4731 16.8287ZM18.0458 16.2033L18.3665 16.4424L19.0014 15.5908L17.9624 15.8121L18.0458 16.2033ZM16.5454 16.2768L16.2153 16.051L15.7828 16.6833L16.5488 16.6768L16.5454 16.2768ZM20.2279 13.4259L20.4233 13.7749L20.1755 13.0293L20.2279 13.4259ZM19.4867 14.1154L19.1559 13.8905L18.76 14.473L19.4631 14.5147L19.4867 14.1154ZM22.1805 15.4041L22.0854 15.7926L23.1926 16.0638L22.4976 15.1602L22.1805 15.4041ZM18.8311 15.5878L18.6251 15.2449L18.8661 15.9863L18.8311 15.5878ZM23.5273 17.2336L23.4133 17.617L24.4063 17.9122L23.8694 17.0263L23.5273 17.2336ZM19.9908 17.1608L19.8574 16.7837L19.2912 16.984L19.6942 17.4293L19.9908 17.1608ZM26.2024 17.3273L26.5354 17.5489L26.5354 17.5489L26.2024 17.3273ZM25.3815 15.4068L25.2157 15.7708L25.3815 15.4068ZM23.2645 13.4919L23.5786 13.2442L22.9182 12.407L22.865 13.472L23.2645 13.4919ZM24.7081 13.6612L24.8308 14.0419L24.8308 14.0419L24.7081 13.6612ZM26.3302 13.7896L26.1795 14.1601L26.1795 14.1602L26.3302 13.7896ZM29.0819 13.1569L28.6907 13.0733L28.6907 13.0734L29.0819 13.1569ZM28.0579 11.7948L28.2979 11.4748L27.8126 12.1107L28.0579 11.7948ZM18.9069 12.7855H18.507V14.2393L19.2506 12.9901L18.9069 12.7855ZM19.2964 10.6457L19.6731 10.5113L19.5843 10.2624L19.3206 10.2464L19.2964 10.6457ZM16.6071 10.086L16.9072 9.82162L16.9072 9.82157L16.6071 10.086ZM14.3357 8.92893L14.3039 8.5302L14.0885 8.54738L13.9848 8.73697L14.3357 8.92893ZM17.7449 11.7586L18.095 11.9519L18.5279 11.1682L17.6553 11.3687L17.7449 11.7586ZM13.849 13.4681L13.4504 13.4351L13.4145 13.8683L13.8492 13.8681L13.849 13.4681ZM13.9043 12.8015L14.3029 12.8345L14.3205 12.622L14.1539 12.4889L13.9043 12.8015ZM13.6479 8.86716L13.9818 9.08733L14.1724 8.79822L13.9136 8.56818L13.6479 8.86716ZM13.8864 4.8887L14.2746 4.98536L14.4565 4.25466L13.7492 4.51298L13.8864 4.8887ZM16.3844 8.13212L16.4006 7.73246L16.4006 7.73245L16.3844 8.13212ZM18.436 8.44971L18.2562 8.80699L19.3983 9.38198L18.7874 8.25861L18.436 8.44971ZM15.9759 6.46918L15.9571 6.06962L15.8587 6.85161L15.9759 6.46918ZM19.7112 8.55893L19.3848 8.79006L19.3936 8.80258L19.4034 8.81438L19.7112 8.55893ZM20.6021 8.85072L20.5646 8.45248H20.5646L20.6021 8.85072ZM23.411 9.92677L23.4623 10.3235L23.4677 9.53081L23.411 9.92677ZM21.0607 9.95292L21.0911 9.55408L20.9359 10.3329L21.0607 9.95292ZM23.4485 13.0029L23.1365 13.2532L24.0394 14.3788L23.8449 12.949L23.4485 13.0029ZM18.9069 12.7854L18.6573 12.4729L18.507 12.593V12.7854H18.9069ZM28.3035 11.4791C27.3863 10.7675 26.4393 10.1122 25.4989 9.45908L25.0426 10.1162C25.9869 10.772 26.9157 11.4149 27.8132 12.1112L28.3035 11.4791ZM25.4959 9.45703C25.2722 9.30465 25.2109 9.16117 25.1977 9.02706C25.1816 8.86386 25.2315 8.65173 25.3537 8.3698C25.4766 8.08641 25.6382 7.80428 25.8091 7.47376C25.9706 7.16132 26.1367 6.81151 26.2133 6.45862L25.4315 6.289C25.3792 6.53004 25.2575 6.79876 25.0984 7.10632C24.9488 7.3958 24.757 7.73514 24.6198 8.05155C24.4819 8.36943 24.365 8.73545 24.4016 9.10561C24.441 9.50485 24.6517 9.84993 25.0455 10.1182L25.4959 9.45703ZM25.4231 6.39763C25.4799 7.34957 25.3044 7.54051 25.0823 8.45532L25.8598 8.64407C26.052 7.85215 26.2879 7.46069 26.2216 6.34999L25.4231 6.39763ZM25.7022 8.87613C26.1289 8.57398 26.6504 8.47084 27.0165 8.45221L26.9758 7.65325C26.5236 7.67626 25.8348 7.80197 25.2399 8.22326L25.7022 8.87613ZM27.3876 8.1349C27.5327 7.44353 27.3881 6.8344 27.0438 6.32925C26.7073 5.83552 26.1943 5.46044 25.6246 5.18452C24.4888 4.63445 23.0191 4.42579 21.867 4.52082L21.9328 5.31811C22.9639 5.23306 24.2871 5.42564 25.2759 5.90452C25.7685 6.14308 26.1508 6.43941 26.3828 6.77982C26.607 7.10881 26.7042 7.49654 26.6047 7.97055L27.3876 8.1349ZM21.5547 5.12168C21.5867 5.17629 21.6297 5.2235 21.6522 5.24782C21.6815 5.27954 21.7158 5.31371 21.7509 5.34753C21.8216 5.41556 21.9081 5.49402 21.9932 5.56951C22.1581 5.71588 22.3477 5.87743 22.3973 5.92087L22.9246 5.31928C22.8534 5.25682 22.6939 5.12178 22.5242 4.97119C22.442 4.89819 22.3648 4.82807 22.3058 4.77121C22.276 4.74259 22.2539 4.72024 22.2392 4.70433C22.2176 4.68102 22.2287 4.6895 22.245 4.71726L21.5547 5.12168ZM22.6981 6.01834C23.0613 5.98442 23.4627 6.12576 23.801 6.37537C24.1457 6.62972 24.3552 6.94407 24.4014 7.17474L25.1858 7.01763C25.0876 6.52699 24.7179 6.05778 24.276 5.73166C23.8276 5.4008 23.2349 5.16473 22.6237 5.22181L22.6981 6.01834ZM24.9787 6.74159C24.8679 6.68373 24.7826 6.62652 24.6967 6.56581C24.6153 6.50833 24.5123 6.43175 24.3978 6.36515C24.1436 6.21726 23.8433 6.12061 23.3372 6.07871L23.2712 6.87598C23.694 6.91099 23.8709 6.98414 23.9955 7.05662C24.0704 7.10021 24.1321 7.14647 24.235 7.21919C24.3334 7.28868 24.4519 7.36902 24.6085 7.45078L24.9787 6.74159ZM22.9485 6.66049C23.0686 6.8936 23.2506 7.13669 23.3828 7.32806C23.5295 7.54038 23.6331 7.71219 23.6797 7.86777L24.446 7.63825C24.3596 7.34975 24.1883 7.08648 24.0411 6.87337C23.8794 6.63929 23.7485 6.46659 23.6598 6.2942L22.9485 6.66049ZM24.2654 7.40805C24.1044 7.31357 23.9586 7.17487 23.7544 6.99143C23.5681 6.82408 23.3317 6.61908 23.0403 6.497L22.7312 7.23484C22.884 7.2989 23.0311 7.4171 23.2198 7.58659C23.3906 7.73999 23.6113 7.95177 23.8604 8.09797L24.2654 7.40805ZM22.4914 6.79874C22.4088 7.28377 22.2531 7.38941 22.0094 7.83548L22.7114 8.2191C22.8714 7.92634 23.1675 7.59394 23.2801 6.93311L22.4914 6.79874ZM22.6989 7.81416C22.7169 7.8459 22.7381 7.89552 22.7435 7.91213C22.7462 7.92186 22.7503 7.93802 22.7517 7.9444C22.7542 7.95637 22.7556 7.96579 22.7561 7.96909C22.7573 7.97688 22.7579 7.9829 22.758 7.98429C22.7583 7.98662 22.7584 7.98837 22.7585 7.98908C22.7586 7.98992 22.7586 7.99048 22.7586 7.99062C22.7586 7.99071 22.7585 7.98931 22.7582 7.98528C22.7577 7.97764 22.7569 7.96627 22.7558 7.9502C22.7536 7.91874 22.7504 7.87304 22.7462 7.81709C22.7377 7.70537 22.7252 7.55202 22.7086 7.38649C22.6774 7.07703 22.6257 6.65705 22.5402 6.41941L21.7875 6.69028C21.8332 6.81732 21.8788 7.13197 21.9126 7.46675C21.9284 7.62335 21.9403 7.76954 21.9484 7.87722C21.9525 7.93097 21.9556 7.97494 21.9577 8.00592C21.9588 8.02107 21.9597 8.03411 21.9603 8.04318C21.9607 8.04751 21.961 8.05254 21.9614 8.05701C21.9616 8.05884 21.9619 8.06326 21.9625 8.06839C21.9627 8.07036 21.9634 8.07683 21.9646 8.08494C21.9651 8.08839 21.9665 8.09794 21.969 8.11C21.9704 8.11642 21.9745 8.13263 21.9773 8.14238C21.9827 8.15902 22.0039 8.20866 22.0219 8.24041L22.6989 7.81416ZM22.1421 6.15544C21.5942 6.18533 21.1391 6.33721 20.7746 6.59279C20.4106 6.84804 20.1592 7.19102 19.9937 7.5686L20.7263 7.88985C20.8432 7.62326 21.009 7.4055 21.2339 7.24782C21.4583 7.09048 21.7639 6.97726 22.1856 6.95425L22.1421 6.15544ZM20.7557 7.67082C20.6985 7.28308 20.8338 6.9073 21.0581 6.59544C21.2898 6.27316 21.5716 6.08094 21.7119 6.03509L21.4635 5.27463C21.1159 5.38817 20.7071 5.71327 20.4086 6.12839C20.1026 6.55394 19.868 7.13565 19.9643 7.78764L20.7557 7.67082ZM21.9335 5.4537C21.4375 4.60124 20.4545 4.33385 19.5759 4.38733C18.6983 4.44075 17.7665 4.81901 17.264 5.46081L17.8939 5.95398C18.2135 5.54589 18.8976 5.2301 19.6245 5.18585C20.3506 5.14165 20.9609 5.37294 21.242 5.85602L21.9335 5.4537ZM17.9428 5.87366C18.2864 5.12174 18.9237 4.65946 19.3608 4.57703L19.2125 3.79089C18.4701 3.93091 17.6437 4.60337 17.2152 5.54114L17.9428 5.87366ZM19.3964 3.7993C17.3273 3.20922 15.1087 4.13737 14.3916 5.74915L15.1225 6.07435C15.6461 4.89743 17.4115 4.06513 19.177 4.56862L19.3964 3.7993ZM15.1376 6.03499C15.458 5.04552 16.0224 4.48857 16.6748 4.22265C17.3405 3.95129 18.1488 3.96283 18.9733 4.21629L19.2084 3.45161C18.2608 3.1603 17.2548 3.12232 16.3728 3.48184C15.4775 3.8468 14.761 4.60114 14.3765 5.78851L15.1376 6.03499ZM19.3115 3.50036C17.8575 2.53837 16.3077 2.4521 14.9183 2.80804C13.5385 3.16151 12.3072 3.95153 11.4375 4.76594L11.9843 5.34988C12.778 4.60666 13.8939 3.8963 15.1168 3.58301C16.3301 3.27219 17.6386 3.35276 18.8701 4.16754L19.3115 3.50036ZM12.0267 5.30339C12.7218 4.40907 13.6525 3.77924 14.5808 3.41658C15.5167 3.05096 16.4107 2.97152 17.0289 3.12628L17.2232 2.35023C16.3969 2.14338 15.3279 2.26581 14.2897 2.67143C13.2438 3.08002 12.1892 3.79082 11.3951 4.81243L12.0267 5.30339ZM17.3761 2.42608C16.4746 1.70384 15.5498 1.23398 14.4948 1.03469C13.4441 0.8362 12.2934 0.911673 10.9471 1.23441L11.1336 2.01237C12.4092 1.70657 13.4403 1.64963 14.3463 1.82079C15.2482 1.99115 16.0553 2.39299 16.8759 3.05043L17.3761 2.42608ZM10.6752 1.78679C10.9128 2.31761 11.3926 2.63363 11.855 2.83387C12.3208 3.03554 12.8352 3.14761 13.22 3.23016L13.3878 2.44797C12.995 2.36369 12.5556 2.26544 12.1729 2.09973C11.7869 1.93261 11.5237 1.7242 11.4054 1.46L10.6752 1.78679ZM13.0466 2.53276C12.6875 2.83441 12.262 2.85801 11.6722 2.63891C11.0641 2.41304 10.3829 1.96416 9.60297 1.4495C8.84262 0.947728 8.00277 0.394093 7.13159 0.0273413C6.25574 -0.34138 5.30793 -0.53918 4.33672 -0.286839L4.53789 0.48745C5.2763 0.295597 6.0349 0.43365 6.82119 0.764665C7.61215 1.09765 8.39016 1.60764 9.16233 2.11721C9.91497 2.61389 10.6809 3.12407 11.3936 3.38883C12.1245 3.66035 12.8934 3.70614 13.5611 3.14537L13.0466 2.53276ZM4.33675 -0.286847C3.43161 -0.0517543 2.76541 0.446715 2.34091 1.11266C1.92023 1.7726 1.75283 2.57105 1.79078 3.39107C1.86636 5.02433 2.75763 6.81668 4.26748 8.00358L4.76189 7.37465C3.42674 6.32508 2.65429 4.74509 2.58992 3.35409C2.55789 2.66199 2.70146 2.03534 3.0155 1.54268C3.32571 1.05604 3.81798 0.674433 4.53786 0.487459L4.33675 -0.286847ZM4.85517 7.47918C4.15296 6.3403 3.73673 5.29052 3.58377 4.43742C3.42782 3.56762 3.55735 2.98427 3.82285 2.67693C4.06414 2.39761 4.52855 2.22771 5.37148 2.45614C6.21527 2.6848 7.35104 3.29723 8.77875 4.44249L9.27932 3.81846C7.8125 2.64181 6.57643 1.95382 5.58072 1.68399C4.58415 1.41392 3.74138 1.54746 3.21745 2.15396C2.71773 2.73245 2.62398 3.61732 2.79633 4.5786C2.97168 5.55656 3.43533 6.7007 4.17421 7.89905L4.85517 7.47918ZM8.77872 4.44247C9.04986 4.66 9.26279 4.80689 9.51592 4.92765C9.7613 5.04472 10.0318 5.13076 10.4007 5.24235L10.6323 4.47661C10.2567 4.36302 10.0429 4.29269 9.86039 4.20562C9.68562 4.12224 9.52706 4.01721 9.27935 3.81847L8.77872 4.44247ZM10.4186 4.47164C10.0256 4.57081 9.767 4.58299 9.53243 4.55286C9.28333 4.52086 9.04333 4.44032 8.66091 4.31419L8.41033 5.07393C8.76803 5.1919 9.08896 5.30246 9.4305 5.34634C9.78658 5.39208 10.1483 5.36492 10.6144 5.24732L10.4186 4.47164ZM8.15861 4.82771C8.24881 5.08214 8.37329 5.24083 8.47786 5.35926C8.58916 5.48531 8.61567 5.50877 8.63968 5.5609L9.36633 5.22629C9.27935 5.0374 9.13884 4.89917 9.07753 4.82974C9.0095 4.7527 8.95578 4.68213 8.91263 4.5604L8.15861 4.82771ZM9.04453 4.99576C8.48229 4.93708 7.78475 4.56731 7.38807 4.293L6.93305 4.95099C7.36488 5.24961 8.19729 5.71168 8.96148 5.79144L9.04453 4.99576ZM6.80262 4.80055C6.95584 5.1077 7.17314 5.43644 7.4253 5.72591C7.67479 6.0123 7.97699 6.28165 8.30648 6.44459L8.66111 5.72749C8.46062 5.62834 8.23917 5.44225 8.02852 5.20043C7.82055 4.9617 7.64122 4.68947 7.5185 4.44345L6.80262 4.80055ZM8.44186 5.68825C8.27568 5.70576 8.12596 5.67934 7.95918 5.63013C7.8712 5.60416 7.79036 5.57573 7.69004 5.54247C7.59526 5.51104 7.48786 5.47703 7.37408 5.45199L7.20215 6.23329C7.27361 6.24902 7.34865 6.2721 7.43825 6.30181C7.52231 6.32968 7.62778 6.36644 7.73277 6.39742C7.95193 6.46209 8.21482 6.51661 8.52572 6.48384L8.44186 5.68825ZM6.93836 6.03674C7.25462 6.60661 7.6652 7.00607 8.16618 7.25805C8.66139 7.50714 9.21794 7.59859 9.80832 7.59948L9.80952 6.79948C9.29687 6.79872 8.87439 6.71878 8.52565 6.54337C8.18267 6.37086 7.88437 6.09273 7.63787 5.64855L6.93836 6.03674ZM9.69983 6.81465C8.65389 7.11114 7.40118 7.81866 6.28757 8.71686C5.17427 9.6148 4.15657 10.7382 3.61744 11.8969L4.34275 12.2344C4.81164 11.2267 5.72991 10.1944 6.78981 9.33955C7.84939 8.48493 9.00708 7.84254 9.91801 7.58432L9.69983 6.81465ZM4.09667 12.4483L5.84742 11.9148L5.61426 11.1496L3.86352 11.683L4.09667 12.4483ZM5.45715 11.2405C4.40645 12.2263 3.08915 14.895 3.54794 18.1429L4.34007 18.031C3.91544 15.0249 5.15516 12.6208 6.00452 11.8239L5.45715 11.2405ZM4.31971 18.2242C4.45822 17.8452 4.69244 17.4235 4.92171 17.0669C5.15588 16.7027 5.3581 16.4476 5.41826 16.3882L4.85637 15.8188C4.7297 15.9437 4.48814 16.262 4.2488 16.6342C4.00456 17.0141 3.73555 17.492 3.5683 17.9497L4.31971 18.2242ZM4.74606 16.0203C4.05442 19.2748 4.85666 22.9802 7.47262 25.2923L8.00241 24.6929C5.64941 22.6132 4.88267 19.2259 5.52858 16.1866L4.74606 16.0203ZM8.10782 24.8413C7.54845 23.4716 7.29293 21.7933 7.15561 20.122L6.3583 20.1875C6.49738 21.8803 6.76036 23.6578 7.36721 25.1438L8.10782 24.8413ZM6.39451 20.3239C7.92446 23.6008 10.4445 26.9452 14.2783 27.8832L14.4684 27.1061C10.992 26.2555 8.61526 23.1893 7.11939 19.9855L6.39451 20.3239ZM14.6241 27.1831C13.861 26.5687 13.0813 25.4614 12.4469 24.1352C11.8157 22.8156 11.3481 21.3204 11.1835 19.9634L10.3893 20.0597C10.5661 21.5165 11.0628 23.0955 11.7252 24.4804C12.3844 25.8585 13.2275 27.0858 14.1225 27.8063L14.6241 27.1831ZM10.3888 19.9676C10.3433 20.3794 10.3639 20.746 10.3987 21.0882C10.4348 21.4446 10.4802 21.7326 10.5005 22.0717L11.299 22.0239C11.2777 21.6672 11.2252 21.3092 11.1946 21.0074C11.1625 20.6915 11.1473 20.3878 11.184 20.0555L10.3888 19.9676ZM11.1661 21.7494C10.5206 21.1734 10.0812 20.3291 9.79079 19.462C9.502 18.5996 9.37255 17.7503 9.32468 17.2038L8.52774 17.2736C8.5795 17.8647 8.71836 18.7788 9.0322 19.716C9.34446 20.6485 9.84194 21.6399 10.6334 22.3462L11.1661 21.7494ZM8.53468 17.1568C8.40862 17.7599 8.41081 18.5899 8.49319 19.4034C8.57603 20.2213 8.74448 21.0664 8.97561 21.7063L9.72804 21.4346C9.52586 20.8748 9.36768 20.0984 9.28912 19.3227C9.21011 18.5426 9.21614 17.8066 9.31775 17.3205L8.53468 17.1568ZM9.62203 21.2755C9.23348 20.9196 8.9091 20.1798 8.67479 19.2967C8.44643 18.4361 8.32505 17.5249 8.28997 16.9146L7.49129 16.9605C7.52909 17.6182 7.6578 18.5832 7.90155 19.5019C8.13936 20.3982 8.50914 21.3409 9.08162 21.8654L9.62203 21.2755ZM7.55104 16.7262C7.40672 16.958 7.2515 17.1926 7.08855 17.47L7.77829 17.8752C7.93529 17.608 8.0702 17.406 8.23021 17.1489L7.55104 16.7262ZM7.81373 17.5487C7.59694 16.8834 7.524 15.7926 7.59614 14.697C7.66875 13.5942 7.88173 12.5894 8.16919 12.0748L7.47078 11.6847C7.09243 12.362 6.8721 13.517 6.79787 14.6445C6.72317 15.7791 6.78986 16.9887 7.05311 17.7965L7.81373 17.5487ZM7.57087 11.5668C7.25054 11.8218 6.82209 12.1881 6.57896 12.619L7.27572 13.0121C7.43418 12.7312 7.74669 12.4493 8.06911 12.1927L7.57087 11.5668ZM7.2691 12.6077C7.18316 12.4664 7.17115 12.1694 7.3989 11.6681C7.61404 11.1945 7.99535 10.6495 8.46828 10.1201C8.93907 9.59308 9.48565 9.09842 10.016 8.72186C10.5565 8.33812 11.0405 8.10547 11.3903 8.05155L11.2685 7.26089C10.7334 7.34334 10.1265 7.66226 9.55285 8.06956C8.9691 8.48404 8.37841 9.01987 7.87168 9.58709C7.36708 10.1519 6.93059 10.7648 6.67055 11.3372C6.42313 11.8818 6.27856 12.5186 6.58559 13.0234L7.2691 12.6077ZM11.0619 7.35881C9.79704 8.49643 9.00337 10.3816 8.83046 12.3162C8.65723 14.2543 9.10047 16.3188 10.409 17.8058L11.0096 17.2774C9.88503 15.9994 9.46757 14.1742 9.62728 12.3874C9.78731 10.5969 10.5202 8.92197 11.5969 7.95363L11.0619 7.35881ZM11.1089 17.5249L11.0519 16.1593L10.2526 16.1927L10.3096 17.5583L11.1089 17.5249ZM10.2769 16.3142C10.4022 16.6546 10.7514 17.1125 11.1466 17.4906C11.5411 17.8681 12.0708 18.2526 12.6047 18.3488L12.7465 17.5615C12.4496 17.508 12.0619 17.2591 11.6996 16.9126C11.338 16.5666 11.0909 16.2097 11.0276 16.0378L10.2769 16.3142ZM12.9197 17.6383C12.6393 17.4222 12.279 16.9818 11.9422 16.372C11.6095 15.7696 11.3159 15.0313 11.151 14.245C10.8204 12.6687 11.015 10.9661 12.3495 9.72535L11.8047 9.13946C10.1921 10.6388 10.0037 12.672 10.3681 14.4093C10.5507 15.2798 10.874 16.0927 11.2419 16.7588C11.6057 17.4174 12.0298 17.9625 12.4315 18.272L12.9197 17.6383ZM11.694 9.31738C11.0714 11.3911 11.4406 13.5848 12.5667 14.7143C13.1476 15.297 13.9273 15.5867 14.822 15.4046C15.6947 15.227 16.6247 14.6117 17.5725 13.5075L16.9655 12.9864C16.0788 14.0194 15.2935 14.4922 14.6624 14.6207C14.0534 14.7447 13.5408 14.5583 13.1333 14.1495C12.2825 13.2962 11.8903 11.4455 12.4602 9.54743L11.694 9.31738ZM16.8723 13.1957C16.6742 14.7281 15.8387 16.1174 14.3868 16.4381L14.5594 17.2193C16.4807 16.7948 17.4463 14.9959 17.6657 13.2983L16.8723 13.1957ZM14.2641 17.1698C14.811 17.5048 15.6273 17.5891 16.3704 17.4811C17.1149 17.373 17.9109 17.0535 18.3665 16.4424L17.7251 15.9643C17.4485 16.3353 16.8955 16.5965 16.2554 16.6894C15.614 16.7826 15.01 16.6885 14.682 16.4876L14.2641 17.1698ZM17.9624 15.8121C17.5332 15.9036 17.0832 15.8722 16.542 15.8768L16.5488 16.6768C17.0058 16.6729 17.5952 16.7083 18.1291 16.5946L17.9624 15.8121ZM16.8756 16.5026C17.1844 16.0512 17.7845 15.4039 18.4546 14.8501C18.7876 14.5749 19.1294 14.3299 19.4516 14.1464C19.779 13.96 20.0614 13.8514 20.2804 13.8224L20.1755 13.0293C19.81 13.0777 19.4238 13.2416 19.0558 13.4512C18.6827 13.6636 18.3026 13.9379 17.9449 14.2335C17.2335 14.8215 16.5768 15.5224 16.2153 16.051L16.8756 16.5026ZM20.0325 13.0769C19.6064 13.3154 19.2841 13.702 19.1559 13.8905L19.8175 14.3403C19.9054 14.2109 20.1435 13.9316 20.4233 13.7749L20.0325 13.0769ZM19.4631 14.5147C20.5793 14.5808 21.4307 15.0853 21.8635 15.6479L22.4976 15.1602C21.909 14.3949 20.8331 13.7945 19.5104 13.7161L19.4631 14.5147ZM22.2757 15.0155C22.0637 14.9636 21.4978 14.8174 20.8241 14.7827C20.1562 14.7482 19.3325 14.8199 18.6251 15.2449L19.0371 15.9307C19.549 15.6231 20.1873 15.5509 20.7829 15.5816C21.3726 15.612 21.8718 15.7403 22.0854 15.7926L22.2757 15.0155ZM18.8661 15.9863C19.6946 15.9135 20.686 16.1081 21.5374 16.4264C21.9602 16.5844 22.3363 16.7685 22.6298 16.955C22.9332 17.1477 23.112 17.3202 23.1852 17.4409L23.8694 17.0263C23.7007 16.748 23.3982 16.4953 23.0588 16.2797C22.7097 16.0579 22.2818 15.8506 21.8175 15.677C20.8949 15.3321 19.78 15.1029 18.7961 15.1894L18.8661 15.9863ZM23.6413 16.8502C23.1189 16.6949 22.4403 16.5878 21.7692 16.5623C21.1037 16.5371 20.4045 16.5903 19.8574 16.7837L20.1242 17.5379C20.5343 17.3929 21.1181 17.3382 21.7388 17.3618C22.354 17.3851 22.965 17.4837 23.4133 17.617L23.6413 16.8502ZM19.6942 17.4293C20.4528 18.2673 21.7811 18.8346 23.0759 18.9433C24.3705 19.052 25.7641 18.7081 26.5354 17.5489L25.8694 17.1057C25.3251 17.9237 24.2877 18.2422 23.1428 18.1461C21.9981 18.05 20.8784 17.5455 20.2874 16.8924L19.6942 17.4293ZM26.5354 17.5489C26.8477 17.0795 26.8721 16.5542 26.6639 16.0901C26.4619 15.6399 26.0558 15.2743 25.5472 15.0427L25.2157 15.7708C25.5907 15.9416 25.8293 16.1842 25.934 16.4176C26.0325 16.6372 26.0256 16.8709 25.8694 17.1058L26.5354 17.5489ZM25.5472 15.0427C25.3015 14.9308 25.0252 14.85 24.7927 14.7772C24.5464 14.7001 24.3365 14.6286 24.1599 14.5321C23.9893 14.4389 23.8677 14.3314 23.7874 14.1914C23.7071 14.0513 23.6475 13.8426 23.664 13.5119L22.865 13.472C22.8428 13.9175 22.9198 14.2867 23.0934 14.5894C23.267 14.8922 23.5165 15.0922 23.7762 15.2341C24.03 15.3728 24.3094 15.4642 24.5537 15.5407C24.8117 15.6215 25.027 15.6849 25.2157 15.7708L25.5472 15.0427ZM22.9505 13.7397C23.093 13.9203 23.2502 14.0592 23.4294 14.1491C23.612 14.2406 23.7951 14.2701 23.9701 14.2633C24.1385 14.2567 24.297 14.2166 24.4339 14.1745C24.5481 14.1393 24.7303 14.0743 24.8308 14.0419L24.5854 13.2805C24.4115 13.3366 24.334 13.3682 24.1987 13.4098C24.086 13.4445 24.0049 13.4613 23.939 13.4639C23.8798 13.4662 23.8339 13.4569 23.788 13.4339C23.7388 13.4092 23.6681 13.3577 23.5786 13.2442L22.9505 13.7397ZM24.8308 14.0419C25.1485 13.9395 25.3811 13.9337 25.5728 13.9633C25.7755 13.9947 25.9504 14.067 26.1795 14.1601L26.4809 13.4191C26.2699 13.3333 26.0068 13.221 25.6952 13.1727C25.3725 13.1228 25.014 13.1423 24.5853 13.2805L24.8308 14.0419ZM26.1795 14.1602C26.6695 14.3594 27.4013 14.381 28.0148 14.2682C28.3273 14.2107 28.6409 14.1129 28.898 13.9621C29.151 13.8136 29.4002 13.5818 29.473 13.2405L28.6907 13.0734C28.6836 13.1066 28.6476 13.1814 28.4931 13.2721C28.3428 13.3603 28.1266 13.4342 27.87 13.4814C27.3452 13.5779 26.7812 13.5412 26.4809 13.4191L26.1795 14.1602ZM29.473 13.2406C29.5813 12.7341 29.2538 12.3119 29.0107 12.0637C28.7502 11.7977 28.4219 11.571 28.3032 11.4788L27.8126 12.1107C27.9839 12.2437 28.2293 12.4092 28.4392 12.6235C28.6665 12.8556 28.706 13.0019 28.6907 13.0733L29.473 13.2406ZM27.8179 12.1148L27.8183 12.1151L28.2983 11.4751L28.2979 11.4748L27.8179 12.1148ZM19.2506 12.9901C19.6963 12.2416 20.0204 11.485 19.6731 10.5113L18.9196 10.7801C19.1429 11.4059 18.9752 11.8889 18.5633 12.5809L19.2506 12.9901ZM19.3206 10.2464C19.035 10.2291 18.7731 10.2623 18.5486 10.2951C18.3127 10.3296 18.133 10.3606 17.9517 10.3637C17.782 10.3666 17.6286 10.3436 17.4715 10.2728C17.312 10.2009 17.1253 10.0692 16.9072 9.82162L16.3069 10.3504C16.5819 10.6626 16.8569 10.8733 17.1429 11.0021C17.4312 11.1321 17.707 11.168 17.9654 11.1636C18.2122 11.1593 18.4594 11.1167 18.6644 11.0867C18.8807 11.0551 19.0738 11.033 19.2722 11.045L19.3206 10.2464ZM16.9072 9.82157C16.5827 9.45334 16.2472 9.09897 15.8348 8.85552C15.4069 8.60295 14.9179 8.48122 14.3039 8.5302L14.3675 9.32766C14.8275 9.29097 15.1506 9.38063 15.4281 9.54445C15.7211 9.71739 15.9843 9.9844 16.307 10.3505L16.9072 9.82157ZM13.9848 8.73697C13.6817 9.29101 13.5956 9.84174 13.7136 10.3488C13.8309 10.8526 14.1395 11.2703 14.5489 11.5815C15.3594 12.1977 16.6023 12.4316 17.8345 12.1484L17.6553 11.3687C16.6106 11.6089 15.6215 11.392 15.033 10.9447C14.7428 10.7241 14.5602 10.4568 14.4928 10.1675C14.4262 9.88141 14.4623 9.53097 14.6866 9.12089L13.9848 8.73697ZM17.3947 11.5652C17.0905 12.116 16.488 12.4979 15.78 12.742C15.0792 12.9836 14.3369 13.068 13.8489 13.0681L13.8492 13.8681C14.4102 13.8679 15.2426 13.7734 16.0408 13.4983C16.8319 13.2256 17.6527 12.7529 18.095 11.9519L17.3947 11.5652ZM14.2476 13.5012L14.3029 12.8345L13.5056 12.7684L13.4504 13.4351L14.2476 13.5012ZM13.9043 12.8015C14.1539 12.4889 14.154 12.489 14.1542 12.4892C14.1543 12.4892 14.1544 12.4894 14.1545 12.4894C14.1547 12.4896 14.1549 12.4897 14.155 12.4898C14.1553 12.4901 14.1555 12.4902 14.1555 12.4902C14.1556 12.4903 14.1553 12.4901 14.1546 12.4895C14.1532 12.4883 14.1502 12.4858 14.1457 12.4819C14.1368 12.4741 14.122 12.461 14.1028 12.4427C14.0641 12.406 14.0079 12.3489 13.9436 12.2727C13.8144 12.1193 13.6576 11.8937 13.5445 11.6048C13.3266 11.0483 13.2475 10.2012 13.9818 9.08733L13.3139 8.647C12.4373 9.97659 12.4864 11.0966 12.7995 11.8964C12.9519 12.2857 13.1611 12.5855 13.3317 12.788C13.4174 12.8897 13.4944 12.9682 13.5516 13.0226C13.5803 13.0498 13.6041 13.0711 13.6217 13.0864C13.6305 13.094 13.6377 13.1001 13.6433 13.1048C13.6461 13.1071 13.6484 13.109 13.6503 13.1106C13.6513 13.1113 13.6521 13.112 13.6529 13.1126C13.6532 13.1129 13.6536 13.1132 13.6539 13.1134C13.654 13.1135 13.6542 13.1137 13.6543 13.1138C13.6545 13.1139 13.6547 13.1141 13.9043 12.8015ZM13.9136 8.56818C13.0736 7.82164 12.9693 7.05774 13.1212 6.46146C13.2003 6.15102 13.3523 5.874 13.529 5.65962C13.71 5.44006 13.8957 5.31113 14.0236 5.26443L13.7492 4.51298C13.4483 4.62288 13.1525 4.85866 12.9117 5.1508C12.6666 5.44811 12.4566 5.82979 12.346 6.26391C12.1185 7.15675 12.3237 8.22548 13.3821 9.16615L13.9136 8.56818ZM13.4983 4.79205C13.2293 5.87199 13.2858 6.80835 13.8093 7.49129C14.331 8.17181 15.2289 8.48556 16.3682 8.53179L16.4006 7.73245C15.3619 7.6903 14.755 7.40988 14.4442 7.00456C14.1353 6.60165 14.0317 5.96049 14.2746 4.98536L13.4983 4.79205ZM16.3681 8.53179C17.1303 8.56278 17.7466 8.55047 18.2562 8.80699L18.6159 8.09243C17.9107 7.73744 17.0645 7.75945 16.4006 7.73246L16.3681 8.53179ZM18.7874 8.25861C18.1299 7.04966 17.1406 6.40787 16.0932 6.08675L15.8587 6.85161C16.7433 7.12282 17.5444 7.64749 18.0846 8.64081L18.7874 8.25861ZM15.9947 6.86874C17.2708 6.80872 18.619 7.70854 19.3848 8.79006L20.0377 8.32779C19.1776 7.11309 17.5997 5.99237 15.9571 6.06962L15.9947 6.86874ZM19.4034 8.81438C19.5425 8.98203 19.7073 9.12174 19.9367 9.19826C20.1529 9.27036 20.3874 9.2727 20.6396 9.24895L20.5646 8.45248C20.3519 8.47251 20.2489 8.45905 20.1898 8.43936C20.1441 8.4241 20.0958 8.39602 20.019 8.30347L19.4034 8.81438ZM20.6396 9.24895C20.5845 9.25414 20.5505 9.24311 20.5638 9.24638C20.5683 9.24748 20.5823 9.25148 20.609 9.26119C20.662 9.28051 20.7363 9.31187 20.8334 9.35554C21.034 9.44571 21.2688 9.55923 21.5598 9.69275C22.1053 9.94307 22.8049 10.2441 23.3543 10.3227L23.4677 9.53081C23.0519 9.47127 22.4564 9.22394 21.8934 8.96564C21.6302 8.84485 21.3574 8.71398 21.1615 8.62592C21.0605 8.58047 20.9644 8.53925 20.8829 8.50955C20.8423 8.49476 20.7981 8.48015 20.7543 8.4694C20.7194 8.46083 20.647 8.44472 20.5646 8.45248L20.6396 9.24895ZM23.3597 9.53008C22.6085 9.62728 21.8638 9.61303 21.0911 9.55408L21.0303 10.3518C21.8301 10.4128 22.6353 10.4305 23.4623 10.3235L23.3597 9.53008ZM20.9359 10.3329C21.3448 10.4672 21.8379 10.8427 22.2576 11.3661C22.6743 11.8857 22.9762 12.4987 23.0522 13.0568L23.8449 12.949C23.744 12.2076 23.3605 11.4626 22.8817 10.8656C22.406 10.2724 21.7936 9.77263 21.1855 9.57289L20.9359 10.3329ZM23.7605 12.7526C23.0238 11.8341 22.1072 11.4529 21.1769 11.4732C20.2645 11.4932 19.3777 11.8972 18.6573 12.4729L19.1566 13.0979C19.7799 12.5999 20.5025 12.2882 21.1944 12.273C21.8683 12.2583 22.5506 12.5227 23.1365 13.2532L23.7605 12.7526ZM18.507 12.7854V12.7855H19.3069V12.7854H18.507Z" fill="#EFF2F4" mask="url(#path-1-inside-1_657_1018)"/>
<path d="M6.86719 29.279C6.2765 28.6838 5.65187 27.8274 5.10339 26.8779C4.61421 26.0312 4.19277 25.1228 3.91283 24.2785C5.30773 26.0203 7.09299 27.3916 8.85953 28.7297C8.91377 28.7708 8.96799 28.8118 9.02219 28.8528C11.022 30.3669 12.9816 31.8505 14.3834 33.8055L14.8061 34.3951L14.7452 33.6722C14.6469 32.5051 14.2336 31.6209 13.584 30.8499C14.1743 31.2542 14.6564 31.7512 15.042 32.199L15.1866 32.367L15.3389 32.2059C15.3677 32.1753 15.3896 32.1374 15.4035 32.1118C15.4198 32.0818 15.4365 32.047 15.4529 32.0107C15.4857 31.9379 15.5215 31.8493 15.5561 31.7613C15.5828 31.6934 15.6082 31.627 15.6314 31.5665C15.671 31.4631 15.7041 31.3768 15.7256 31.3289L15.7256 31.3288C15.8413 31.0702 15.9687 30.8503 16.109 30.6118L16.109 30.6118C16.2052 30.4481 16.3461 30.2603 16.5056 30.0838C16.4157 30.3647 16.3477 30.664 16.2943 30.9736C16.1849 31.6085 16.1345 32.3026 16.0893 32.9931C16.0852 33.0547 16.0812 33.1163 16.0772 33.1779C16.0362 33.8097 15.9956 34.4351 15.9155 35.0216C15.8514 35.4908 15.7629 35.9275 15.6321 36.3152C14.8009 34.6668 13.5887 33.309 11.9689 32.3841L11.5734 32.1583L11.6748 32.6023L11.6748 32.6023L11.6748 32.6025L11.675 32.6031L11.6756 32.6057L11.6779 32.6161L11.6869 32.656C11.6948 32.6907 11.706 32.7408 11.7197 32.8026C11.747 32.9261 11.7841 33.0958 11.8231 33.2808C11.8621 33.4666 11.9025 33.6651 11.9367 33.8468C11.001 33.1347 9.93863 32.06 9.0435 31.0004C8.53408 30.3974 8.08258 29.8037 7.74265 29.2906C7.39773 28.77 7.18268 28.3542 7.12363 28.1009L6.72885 28.1459C6.72794 28.6453 6.79172 28.9626 6.86719 29.279ZM17.0389 29.3755C16.924 29.4371 16.8002 29.5273 16.6767 29.6345L16.8411 29.7571C16.8999 29.6224 16.9655 29.4949 17.0389 29.3755Z" stroke="#EFF2F4" stroke-width="0.399999"/>
<path d="M20.2428 26.6877H20.0014L20.0409 26.8961C20.03 26.9875 20.0175 27.0778 20.0049 27.168C19.9679 27.4337 19.9309 27.6988 19.939 27.9881C19.555 27.8134 19.1254 27.4615 18.7647 27.041C18.5961 26.8445 18.4475 26.6385 18.3298 26.4376C18.5553 26.6266 18.7983 26.7992 18.9599 26.873L19.6414 27.1843L19.2057 26.5748C18.8059 26.0154 18.5695 25.2589 18.6506 24.4113C18.8457 24.8636 19.1142 25.3133 19.4868 25.6231C19.7761 25.8635 20.1296 26.0209 20.5541 26.027C20.9753 26.033 21.4472 25.8899 21.9766 25.5651C23.171 24.8324 24.108 24.6103 24.8105 24.6781C25.5059 24.7453 25.994 25.0985 26.2994 25.5715C26.6082 26.0497 26.7316 26.6542 26.677 27.2089C26.6449 27.5346 26.553 27.8321 26.4104 28.0735C26.4126 27.9886 26.4119 27.9059 26.4084 27.827C26.4026 27.693 26.3887 27.5665 26.3665 27.457C26.345 27.3517 26.3126 27.2455 26.2604 27.1639L25.9876 26.7377L25.8953 27.2352C25.8185 27.6489 25.6165 28.1097 25.3511 28.5059C25.2267 28.6917 25.0919 28.858 24.9544 28.9965C25.0126 28.7037 25.0317 28.387 25.0083 28.0934L24.6166 28.0544C24.4494 28.6394 23.9542 29.6672 23.136 30.3316C23.2388 29.7721 23.3256 29.1597 23.3383 28.5731L23.3489 28.087L22.9993 28.425L22.1768 29.2204L21.5626 27.7157L21.3554 27.2079L21.1871 27.7299C21.1178 27.9448 21.0571 28.1589 21.0071 28.3794C20.766 27.9376 20.5803 27.5762 20.4452 26.8812L20.4672 26.6877H20.2432H20.2428Z" stroke="#EFF2F4" stroke-width="0.399999"/>
<path d="M1.87859 23.21C1.77637 23.022 1.68325 22.8015 1.60085 22.5549C1.43408 22.0558 1.31775 21.4693 1.25498 20.8734C1.19223 20.2778 1.18359 19.6785 1.22937 19.155C1.27556 18.6268 1.37568 18.1941 1.51823 17.9196L1.73277 17.5064L1.28536 17.6352C1.11517 17.6843 0.981731 17.8034 0.879287 17.9299C0.797488 18.0309 0.726524 18.1477 0.665094 18.2648C0.695227 17.4456 0.871087 16.4817 1.17587 15.5566C1.49544 14.5865 1.94852 13.6839 2.50164 13.0419C2.03129 14.6403 1.50543 17.4755 2.75942 20.4304C2.78776 20.4973 2.79592 20.5339 2.79763 20.5535C2.79881 20.567 2.79716 20.5713 2.79404 20.5778C2.78764 20.5911 2.77396 20.6112 2.73788 20.6534C2.72916 20.6636 2.71895 20.6753 2.70763 20.6883C2.6778 20.7225 2.64027 20.7655 2.60208 20.8131L2.60207 20.8131C2.05441 21.4966 1.89684 22.3816 1.87859 23.21Z" stroke="#EFF2F4" stroke-width="0.399999"/>
<path d="M29.7951 15.7801C29.8137 16.3109 29.7761 16.5446 29.7023 16.6931C29.6609 16.7765 29.6029 16.8429 29.5087 16.9295C29.4796 16.9563 29.4445 16.9871 29.4051 17.0216C29.3263 17.0907 29.2306 17.1747 29.1322 17.2709L28.6342 17.758L29.3148 17.6093L29.4833 17.5725C29.407 17.7667 29.2898 17.9978 29.1423 18.2064C29.0247 18.3727 28.8951 18.5143 28.7625 18.6093C28.6302 18.7041 28.508 18.7437 28.3965 18.734C28.3077 18.7262 28.1759 18.6732 28.0185 18.5677C27.8656 18.4652 27.7068 18.3256 27.567 18.1716C27.4267 18.017 27.3114 17.8545 27.2403 17.7088C27.1652 17.555 27.1565 17.4557 27.1703 17.4076L27.1703 17.4076C27.2505 17.1284 27.4224 16.7833 27.6314 16.4505C27.8397 16.1188 28.076 15.8134 28.2755 15.6122L29.7951 15.7801ZM29.7951 15.7801C29.661 15.858 29.5141 15.9375 29.3512 16.003L28.8352 16.2105L29.1009 15.7219C29.1465 15.6379 29.215 15.5527 29.2779 15.4767C29.2927 15.4589 29.3074 15.4413 29.322 15.4238C29.3743 15.3612 29.4256 15.2997 29.4747 15.2339C29.6026 15.0626 29.6772 14.9097 29.6682 14.762C29.6641 14.6944 29.6379 14.6017 29.5968 14.4975C29.5584 14.4 29.5128 14.3064 29.4764 14.2335L29.4127 14.1298C29.2933 14.6648 29.101 14.9857 28.8832 15.1974C28.7467 15.3301 28.6084 15.4115 28.4973 15.4732C28.4845 15.4802 28.4724 15.4869 28.461 15.4932C28.3633 15.5473 28.3117 15.5758 28.2755 15.6122L29.7951 15.7801Z" stroke="#EFF2F4" stroke-width="0.399999"/>
<path d="M24.9484 4.54336L24.3626 3.91616C24.444 3.07385 24.3919 2.4834 24.2295 2.09C24.1439 1.88249 24.025 1.72349 23.8734 1.6153C23.7214 1.50678 23.5499 1.45888 23.3752 1.45221C23.0357 1.43924 22.67 1.58144 22.3468 1.75293C22.0566 1.90693 21.7779 2.09711 21.5508 2.25989C21.4849 2.23497 21.413 2.20698 21.3439 2.17763C21.3373 2.17484 21.3309 2.17208 21.3245 2.16933C21.5251 1.9834 21.7729 1.77463 22.0333 1.5573C22.0645 1.53127 22.0959 1.50512 22.1274 1.47889C22.4418 1.21683 22.7653 0.94712 23.022 0.704933C23.4107 0.430578 23.7396 0.430991 24.0155 0.575535C24.3123 0.731106 24.5838 1.07287 24.7866 1.54692C25.1533 2.40428 25.2527 3.59322 24.9484 4.54336Z" stroke="#EFF2F4" stroke-width="0.399999"/>
<path d="M20.3979 30.2416L20.9875 30.5619C20.8934 31.3901 20.4449 32.2491 19.8264 33.0244C19.483 33.4549 19.0916 33.8539 18.6894 34.2013C19.1052 33.5556 19.4449 32.8779 19.7116 32.2534C20.0587 31.4409 20.2863 30.709 20.3979 30.2416Z" stroke="#EFF2F4" stroke-width="0.399999"/>
<path d="M2.98903 9.01301C3.1116 8.97587 3.23019 8.94278 3.34997 8.91434C3.22136 9.01729 3.07803 9.13797 2.92627 9.27821C2.41066 9.75469 1.79877 10.456 1.3253 11.4611C0.856289 11.8756 0.565904 12.231 0.354912 12.5288C0.535886 11.9063 0.861649 11.21 1.26964 10.555C1.70793 9.8514 2.22531 9.22069 2.72988 8.79367L2.62318 9.12385L2.98903 9.01301Z" stroke="#EFF2F4" stroke-width="0.399999"/>
<path d="M22.3675 3.88137C21.7413 3.69009 21.0764 3.61824 20.4471 3.74102C20.2233 3.57836 19.9502 3.41699 19.7146 3.28253C19.6537 3.2478 19.5977 3.21618 19.5452 3.1866C19.7401 3.16094 19.9645 3.16155 20.2113 3.1882C20.6548 3.23607 21.1494 3.36562 21.6338 3.55156C21.8856 3.64826 22.1331 3.75958 22.3675 3.88137Z" stroke="#EFF2F4" stroke-width="0.399999"/>
<path d="M22.2534 23.4336C22.425 23.1116 22.6073 22.8032 22.7467 22.5835C22.787 22.7479 22.8135 22.94 22.8273 23.1412C22.8487 23.4531 22.8381 23.7666 22.8102 23.9939L22.8102 23.994C22.807 24.0196 22.8045 24.0412 22.8023 24.0599C22.7987 24.0908 22.796 24.114 22.7928 24.1352C22.7913 24.1454 22.7899 24.1529 22.7889 24.1581C22.7787 24.1647 22.7613 24.175 22.7296 24.1919L22.7296 24.1919C22.6111 24.2555 22.4037 24.3343 22.1819 24.3896C22.0448 24.4238 21.9142 24.446 21.8034 24.4531C21.8235 24.3772 21.8549 24.2859 21.8962 24.1825C21.9851 23.9599 22.1136 23.6962 22.2534 23.4336Z" stroke="#EFF2F4" stroke-width="0.399999"/>
<path d="M26.6718 21.3342C26.6913 21.3156 26.7115 21.2956 26.7323 21.2744C26.8704 21.1332 27.0213 20.9504 27.1631 20.7486C27.412 20.3941 27.6137 20.0083 27.6854 19.7031C27.5318 19.6264 27.3833 19.5186 27.2526 19.4226C27.241 19.414 27.2295 19.4055 27.2181 19.3971C27.1565 19.3519 27.0983 19.309 27.0426 19.2699C27.0474 19.5419 27.0448 19.7661 27.0197 19.9892C26.984 20.3078 26.9037 20.6178 26.7457 21.0648L26.6718 21.3342ZM26.6718 21.3342C26.6747 21.2918 26.6887 21.2262 26.7457 21.0648L26.6718 21.3342Z" stroke="#EFF2F4" stroke-width="0.399999"/>
<path d="M28.0038 10.8395C27.8836 10.1742 27.5436 9.59246 27.0586 9.16015C27.04 9.26164 27.007 9.36801 26.9416 9.49011L28.0038 10.8395ZM28.0038 10.8395L26.7163 9.79796C26.7331 9.78173 26.7516 9.76316 26.7676 9.745L28.0038 10.8395ZM26.7677 9.74491C26.8196 9.68609 26.8881 9.58989 26.9415 9.49022L26.7677 9.74491Z" stroke="#EFF2F4" stroke-width="0.399999"/>
<path d="M22.148 19.9173C22.4539 19.9061 22.7266 19.8639 23.0008 19.8196C22.971 19.8855 22.9359 19.9567 22.896 20.0319C22.788 20.2357 22.6507 20.4582 22.5039 20.6719C22.3571 20.8856 22.2027 21.0876 22.0613 21.2508C22.0073 21.3132 21.9568 21.3679 21.9108 21.4146C21.9118 21.3987 21.913 21.3823 21.9143 21.3655C21.9279 21.1933 21.9543 20.9895 21.9866 20.7822C22.0372 20.4567 22.1009 20.1306 22.148 19.9173Z" stroke="#EFF2F4" stroke-width="0.399999"/>
<path d="M25.7294 23.2488L25.9009 22.9062C25.9328 23.0575 25.9585 23.2134 25.9726 23.3689C25.9963 23.6296 25.9866 23.8798 25.9256 24.1022C25.8588 24.0806 25.7816 24.0524 25.7013 24.0219C25.6369 23.9973 25.5683 23.9702 25.5031 23.9445C25.4773 23.9343 25.4521 23.9244 25.4279 23.9149C25.4517 23.8385 25.4845 23.7556 25.5231 23.6689C25.5733 23.5565 25.6285 23.4477 25.6807 23.3451C25.6973 23.3124 25.7137 23.2802 25.7294 23.2488L25.7294 23.2488Z" stroke="#EFF2F4" stroke-width="0.399999"/>
<path d="M16.8253 18.1823C16.4563 18.3111 16.0817 18.35 15.7931 18.2837C15.7993 18.2706 15.8062 18.257 15.8137 18.2427C15.8224 18.2264 15.8333 18.2069 15.8455 18.1853C15.8592 18.1608 15.8745 18.1336 15.8897 18.1052C16.3286 18.0953 16.6358 18.0798 16.9347 18.0377C17.0451 18.0222 17.1537 18.0031 17.2668 17.9796C17.1327 18.058 16.9834 18.1271 16.8253 18.1823Z" stroke="#EFF2F4" stroke-width="0.399999"/>
<path d="M17.906 2.11653C18.1104 2.14393 18.3303 2.18245 18.5492 2.22952C18.6836 2.2584 18.8156 2.29009 18.9413 2.32368C18.7564 2.33133 18.5792 2.33853 18.445 2.34358C18.3739 2.34625 18.3154 2.3483 18.2744 2.34949C18.27 2.34962 18.2658 2.34973 18.2619 2.34984C18.2597 2.34848 18.2573 2.347 18.2547 2.34541C18.2275 2.32861 18.1917 2.30543 18.1483 2.27694C18.1133 2.25395 18.0709 2.22584 18.025 2.19539C17.987 2.17017 17.9466 2.14335 17.906 2.11653Z" stroke="#EFF2F4" stroke-width="0.399999"/>
<path d="M17.5534 9.35094C17.6275 9.42657 17.7107 9.48566 17.8124 9.54759C17.6375 9.49435 17.4608 9.38129 17.2816 9.1622L17.1268 9.28883L17.2818 9.16238C17.2688 9.14654 17.255 9.12974 17.2405 9.11214C17.223 9.09088 17.2045 9.06847 17.1856 9.04523L17.3428 9.0582C17.4118 9.17747 17.4745 9.27053 17.5534 9.35094Z" stroke="#EFF2F4" stroke-width="0.399999"/>
<path fill-rule="evenodd" clip-rule="evenodd" d="M28.0583 11.7951C27.151 11.0912 26.2131 10.4421 25.2707 9.78762C24.0356 8.94632 25.5646 7.56168 25.8224 6.37381C25.8839 7.40513 25.6782 7.69633 25.471 8.5497C25.9819 8.18797 26.587 8.07355 26.9961 8.05273C27.4854 5.72195 24.0832 4.73938 21.8999 4.91947C21.9628 5.02691 22.5401 5.51417 22.6609 5.62007C23.6352 5.52908 24.6492 6.37487 24.7936 7.09619C24.2587 6.81694 24.2331 6.55425 23.3042 6.47734C23.513 6.88284 23.9299 7.30893 24.0629 7.75301C23.6529 7.51234 23.3299 7.05205 22.8858 6.86592C22.7881 7.43885 22.5623 7.65788 22.3604 8.02729C22.3584 8.02409 22.2951 6.91953 22.1639 6.55485C21.1943 6.60774 20.6424 7.08506 20.36 7.72923C20.2065 6.6895 21.0998 5.81425 21.5877 5.65486C20.8107 4.31932 18.401 4.6575 17.579 5.7074C17.9651 4.86255 18.6969 4.29518 19.2867 4.18396C17.3694 3.63717 15.3774 4.5174 14.757 5.91175C15.462 3.73491 17.3188 3.28918 19.0908 3.83395C16.4053 2.05717 13.3743 3.50027 11.7109 5.05791C13.2001 3.14198 15.6815 2.37665 17.126 2.73826C15.4038 1.35858 13.6623 0.994847 11.0403 1.62339C11.3961 2.41842 12.5264 2.67223 13.3039 2.83907C11.2501 4.5639 7.85655 -0.788082 4.4373 0.100306C1.18726 0.94444 1.66967 5.45264 4.51469 7.68911C1.63252 3.01466 3.23997 -0.51333 9.02904 4.13047C9.54789 4.54674 9.772 4.6343 10.5165 4.85948C9.65746 5.07625 9.27574 4.93816 8.53562 4.69406C8.66897 5.07021 8.89201 5.15257 9.003 5.3936C8.33979 5.32438 7.57482 4.90846 7.16056 4.622C7.43649 5.17517 7.95381 5.82395 8.48379 6.08604C8.0067 6.13633 7.65859 5.92417 7.28812 5.84264C7.85087 6.85669 8.70589 7.19783 9.80892 7.19948C7.85205 7.75419 4.98811 9.89932 3.9801 12.0656L5.73084 11.5322C4.7808 12.4236 3.5023 14.96 3.94401 18.087C4.24976 17.2502 4.95048 16.2878 5.13732 16.1035C4.46854 19.2503 5.25304 22.7967 7.73751 24.9926C7.15441 23.5647 6.89516 21.8368 6.75695 20.1547C8.26986 23.3951 10.7182 26.6004 14.3733 27.4947C12.7152 26.1598 11.1278 22.8254 10.7864 20.0115C10.7042 20.7557 10.8581 21.352 10.8998 22.0478C9.46282 20.7655 9.02584 18.3763 8.92621 17.2387C8.69855 18.3278 8.91852 20.3707 9.35183 21.5705C8.39079 20.69 7.96352 18.2055 7.89063 16.9376C7.73846 17.182 7.59339 17.4003 7.43342 17.6726C6.95337 16.1996 7.15417 13.0716 7.81999 11.8797C7.49862 12.1356 7.12814 12.4596 6.92734 12.8156C6.14142 11.5233 9.55961 7.92896 11.3294 7.65622C8.98786 9.76218 8.27625 14.7766 10.7093 17.5416L10.6522 16.176C10.8408 16.6884 11.8448 17.8055 12.6756 17.9552C11.3113 16.9041 9.12997 12.1725 12.0771 9.4324C10.8846 13.4042 13.6001 17.5211 17.269 13.247C17.0602 14.862 16.1597 16.4561 14.4731 16.8287C15.348 17.3646 17.3136 17.1854 18.0458 16.2033C17.5642 16.3059 17.0445 16.2726 16.5454 16.2768C17.2157 15.2967 19.0591 13.5805 20.2279 13.4259C19.875 13.6235 19.5948 13.9565 19.4867 14.1154C20.7062 14.1877 21.6698 14.7401 22.1805 15.4041C21.7549 15.2998 20.0504 14.8553 18.8311 15.5878C20.6435 15.4286 23.0436 16.4355 23.5273 17.2336C22.5566 16.945 20.9481 16.8223 19.9908 17.1608C21.3404 18.652 24.8868 19.3045 26.2024 17.3273C26.6709 16.6232 26.265 15.8091 25.3815 15.4068C24.5125 15.0111 23.187 15.0443 23.2645 13.4919C23.7287 14.0803 24.1593 13.8381 24.7081 13.6612C25.4545 13.4206 25.89 13.6106 26.3302 13.7896C27.1205 14.111 28.9219 13.9062 29.0819 13.1569C29.2054 12.579 28.3479 12.0199 28.0579 11.7948L28.0583 11.7951ZM18.9069 12.7855C19.3358 12.0653 19.5816 11.4455 19.2964 10.6457C18.3285 10.587 17.5932 11.2054 16.6071 10.086C15.9599 9.35171 15.4097 8.84326 14.3357 8.92893C13.2809 10.8572 15.4681 12.2819 17.7449 11.7586C16.9984 13.1103 14.8981 13.4678 13.849 13.4681L13.9043 12.8015C13.9043 12.8015 12.037 11.3106 13.6479 8.86716C11.7495 7.17996 13.0288 5.20191 13.8864 4.8887C13.3747 6.94378 14.2065 8.04374 16.3844 8.13212C17.0974 8.16111 17.8287 8.14396 18.436 8.44971C17.8372 7.34857 16.9419 6.76535 15.9759 6.46918C17.4352 6.40055 18.8983 7.41081 19.7112 8.55893C19.9271 8.81912 20.1372 8.8945 20.6021 8.85072C20.8207 8.83013 22.4458 9.78856 23.411 9.92677C22.6219 10.0289 21.847 10.0129 21.0607 9.95292C22.0777 10.287 23.2717 11.7034 23.4485 13.0029C22.1259 11.3539 20.2507 11.7117 18.9069 12.7854V12.7855Z" fill="#EFF2F4"/>
<path fill-rule="evenodd" clip-rule="evenodd" d="M7.20065 29.8488C7.08055 29.2009 6.92743 28.9212 6.92885 28.1462C7.20076 29.3129 10.1274 32.8866 12.2123 34.2911C12.1529 33.7982 11.8698 32.5578 11.8698 32.5578C13.5825 33.5357 14.8316 35.0103 15.6484 36.8125C16.6032 34.7899 15.9379 31.1639 17.0389 29.3755C16.6566 29.5801 16.1767 30.1021 15.9366 30.5104C15.7963 30.7489 15.6637 30.9773 15.5431 31.2471C15.47 31.41 15.2709 31.9866 15.1935 32.0685C14.5652 31.3388 13.6632 30.4545 12.4381 30.0544C12.5525 30.1431 12.7103 30.2448 12.8154 30.3412C13.7998 31.2465 14.4238 32.2394 14.5459 33.689C11.6244 29.6144 6.32551 27.5733 3.44678 23.3097C3.88269 25.545 5.71531 28.6768 7.20088 29.8487L7.20065 29.8488Z" fill="#EFF2F4"/>
<path fill-rule="evenodd" clip-rule="evenodd" d="M20.2428 26.8877C20.4322 27.8865 20.7301 28.2524 21.1029 28.9821C21.1569 28.561 21.2524 28.1793 21.3775 27.7913L22.1034 29.5697L23.1384 28.5688C23.1223 29.3119 22.9838 30.103 22.8452 30.7771C23.9606 30.1233 24.6092 28.808 24.8089 28.1093C24.8488 28.6081 24.7567 29.1689 24.5668 29.5317C25.2334 29.2152 25.9265 28.1628 26.0919 27.2717C26.2217 27.4745 26.2552 28.1109 26.1464 28.6576C27.8377 27.4731 26.7359 22.4108 21.8721 25.3946C19.8417 26.6403 18.9757 24.9247 18.5929 23.6644C18.2463 24.8476 18.5019 25.934 19.043 26.6911C18.7213 26.5441 17.9148 25.8719 17.8484 25.5891C17.8055 26.4562 19.158 28.0448 20.1645 28.2775C20.0903 27.7752 20.187 27.382 20.2432 26.8877H20.2428Z" fill="#EFF2F4"/>
<path fill-rule="evenodd" clip-rule="evenodd" d="M0.494818 19.1381C0.631247 18.91 0.883161 17.9592 1.34073 17.8274C0.698929 19.0636 0.97439 22.7688 2.08795 23.8302C2.04133 22.8512 2.11777 21.7374 2.75814 20.9382C2.95918 20.6874 3.07159 20.6545 2.94356 20.3524C1.4897 16.9266 2.477 13.6581 2.93267 12.3591C1.22429 13.6383 0.262308 17.1798 0.494818 19.1381Z" fill="#EFF2F4"/>
<path fill-rule="evenodd" clip-rule="evenodd" d="M29.7719 17.3047L29.2721 17.4139C29.8607 16.8381 30.0729 16.963 29.9784 15.4396C29.7591 15.5652 29.5453 15.7094 29.2766 15.8175C29.4169 15.5594 29.8949 15.1944 29.8678 14.7498C29.8557 14.5507 29.7257 14.285 29.6514 14.1363L29.3747 13.6857C29.3225 13.6269 29.3519 13.6562 29.2956 13.6097C29.1098 15.2446 28.3973 15.2056 28.1335 15.4714C27.7085 15.8998 27.153 16.7432 26.9781 17.3524C26.8392 17.8359 27.8254 18.8849 28.3792 18.9332C29.0758 18.9938 29.6889 17.7852 29.7718 17.3046L29.7719 17.3047Z" fill="#EFF2F4"/>
<path fill-rule="evenodd" clip-rule="evenodd" d="M24.1544 3.98633L25.0219 4.91507C25.9374 2.82212 24.6783 -0.728469 22.8948 0.550038C22.3386 1.07682 21.4473 1.7443 20.989 2.21653C21.1097 2.31025 21.4088 2.42053 21.5809 2.48478C22.5412 1.78796 24.5273 0.460465 24.1544 3.98645V3.98633Z" fill="#EFF2F4"/>
<path fill-rule="evenodd" clip-rule="evenodd" d="M17.7239 35.1605C19.2428 34.2313 21.0702 32.2966 21.1986 30.449L20.2579 29.9379C20.1167 30.7354 19.2967 33.3647 17.7239 35.1605Z" fill="#EFF2F4"/>
<path fill-rule="evenodd" clip-rule="evenodd" d="M0 13.3857C0.3222 13.0323 0.507971 12.4414 1.48877 11.5837C2.41372 9.59013 3.90107 8.81308 4.06294 8.60743C3.63117 8.63394 3.29465 8.71144 2.93104 8.8216C3.00629 8.58874 3.20496 8.34688 3.22981 8.21057C1.79109 8.94265 0.0653156 11.7234 0 13.3857Z" fill="#EFF2F4"/>
<path fill-rule="evenodd" clip-rule="evenodd" d="M19.0444 3.12139C19.2068 3.24623 19.9529 3.6115 20.3999 3.95535C21.6346 3.67539 23.0605 4.21803 24.0046 4.95082C23.2586 3.7516 20.2729 2.53059 19.0444 3.12139Z" fill="#EFF2F4"/>
<path fill-rule="evenodd" clip-rule="evenodd" d="M21.5813 24.6443C21.9286 24.704 22.5504 24.5149 22.8241 24.3682C22.992 24.2783 22.9783 24.2661 23.0087 24.0183C23.0678 23.5367 23.0517 22.7131 22.8474 22.2524C22.8096 22.1674 22.8218 22.1959 22.7963 22.1597C22.5647 22.4356 21.5146 24.202 21.5814 24.6444L21.5813 24.6443Z" fill="#EFF2F4"/>
<path fill-rule="evenodd" clip-rule="evenodd" d="M26.4887 21.7169C26.9033 21.5413 27.8354 20.3293 27.9089 19.5798C27.5623 19.4692 27.1795 19.0628 26.8342 18.9154C26.8577 19.8217 26.8678 20.119 26.5571 20.9982C26.4155 21.3991 26.4925 21.3284 26.4888 21.717L26.4887 21.7169Z" fill="#EFF2F4"/>
<path fill-rule="evenodd" clip-rule="evenodd" d="M26.4219 9.81707L28.2506 11.2964C28.2274 10.3546 27.8015 9.52871 27.1354 8.96181C27.0426 8.883 26.9362 8.83792 26.8983 8.75793C26.8691 9.03008 26.8889 9.16509 26.7653 9.39571C26.7188 9.48256 26.6589 9.56598 26.6177 9.6126C26.5849 9.64975 26.5611 9.66786 26.5279 9.70087C26.4498 9.77861 26.4893 9.71874 26.4219 9.81695V9.81707Z" fill="#EFF2F4"/>
<path fill-rule="evenodd" clip-rule="evenodd" d="M21.9885 19.7203C21.894 20.098 21.6404 21.41 21.7198 21.7671L21.7597 21.7739C21.799 21.7642 21.7769 21.7803 21.8265 21.749C22.2397 21.4863 23.1677 20.1678 23.3016 19.5697C22.8462 19.6368 22.4682 19.7204 21.9885 19.7202V19.7203Z" fill="#EFF2F4"/>
<path fill-rule="evenodd" clip-rule="evenodd" d="M25.1934 24.0399C25.3802 24.1045 25.8839 24.3257 26.055 24.3393C26.3083 23.7381 26.1397 22.9571 25.9749 22.3817C25.9144 22.4335 25.955 22.3887 25.9001 22.4611L25.5506 23.1592C25.4256 23.4087 25.2343 23.7582 25.1934 24.04V24.0399Z" fill="#EFF2F4"/>
<path fill-rule="evenodd" clip-rule="evenodd" d="M15.763 17.9079C15.6955 18.074 15.5653 18.2167 15.55 18.414C16.2826 18.7338 17.5851 18.2538 17.9763 17.592C17.0643 17.8512 16.774 17.888 15.763 17.9079Z" fill="#EFF2F4"/>
<path fill-rule="evenodd" clip-rule="evenodd" d="M19.8951 2.48515C19.4649 2.16259 17.7767 1.80643 17.1099 1.87967C17.3679 1.97055 18.1232 2.51674 18.2117 2.55022C18.2278 2.55626 19.6889 2.49106 19.8952 2.48515H19.8951Z" fill="#EFF2F4"/>
<path fill-rule="evenodd" clip-rule="evenodd" d="M18.8701 9.65955C18.7696 9.5682 18.9062 9.62938 18.736 9.61328C18.5635 9.59695 18.4957 9.71055 18.02 9.43769C17.7136 9.26197 17.6479 9.19879 17.465 8.8676L16.7791 8.81104C16.8414 8.94995 17.0275 9.1672 17.1268 9.28883C17.6768 9.96116 18.2724 9.81065 18.87 9.65955H18.8701Z" fill="#EFF2F4"/>
</svg>
